<svg width="567" height="599" viewBox="0 0 567 599" fill="none" xmlns="http://www.w3.org/2000/svg">
<g opacity="0.2">
<path d="M289.971 546.095C220.858 546.095 155.908 519.204 107.098 470.418C58.2882 421.608 31.4219 356.659 31.4219 287.546C31.4219 218.433 58.3127 153.484 107.098 104.673C155.908 55.8634 220.858 28.9971 289.971 28.9971C359.083 28.9971 424.033 55.8879 472.843 104.673C521.653 153.484 548.519 218.433 548.519 287.546C548.519 356.659 521.629 421.608 472.843 470.418C424.033 519.228 359.083 546.095 289.971 546.095ZM289.971 30.5645C148.267 30.5645 32.9893 145.842 32.9893 287.546C32.9893 429.249 148.267 544.527 289.971 544.527C431.674 544.527 546.952 429.249 546.952 287.546C546.952 145.842 431.674 30.5645 289.971 30.5645Z" fill="white" style="fill:white;fill-opacity:1;"/>
<path d="M289.972 529.98C225.17 529.98 164.261 504.779 118.488 459.005C72.7146 413.232 47.5137 352.348 47.5137 287.521C47.5137 222.694 72.7146 161.81 118.488 116.037C164.261 70.264 225.145 45.063 289.972 45.063C354.799 45.063 415.683 70.264 461.456 116.037C507.229 161.81 532.43 222.694 532.43 287.521C532.43 352.348 507.229 413.232 461.456 459.005C415.683 504.779 354.799 529.98 289.972 529.98ZM289.972 46.6549C157.159 46.6549 49.1056 154.708 49.1056 287.521C49.1056 420.335 157.159 528.388 289.972 528.388C422.785 528.388 530.838 420.335 530.838 287.521C530.838 154.708 422.785 46.6549 289.972 46.6549Z" fill="white" style="fill:white;fill-opacity:1;"/>
<path d="M289.971 513.865C229.455 513.865 172.612 490.329 129.9 447.617C87.1635 404.881 63.6523 348.038 63.6523 287.546C63.6523 227.054 87.188 170.186 129.9 127.45C172.636 84.7136 229.479 61.2025 289.971 61.2025C350.463 61.2025 407.331 84.738 450.067 127.45C492.804 170.186 516.315 227.029 516.315 287.546C516.315 348.062 492.779 404.905 450.067 447.617C407.331 490.354 350.488 513.865 289.971 513.865ZM289.971 62.7699C166.048 62.7699 65.2197 163.598 65.2197 287.521C65.2197 411.445 166.048 512.273 289.971 512.273C413.894 512.273 514.723 411.445 514.723 287.521C514.723 163.598 413.894 62.7699 289.971 62.7699Z" fill="white" style="fill:white;fill-opacity:1;"/>
<path d="M289.973 497.75C174.058 497.75 79.7441 403.436 79.7441 287.521C79.7441 171.607 174.058 77.2929 289.973 77.2929C405.887 77.2929 500.201 171.607 500.201 287.521C500.201 403.436 405.887 497.75 289.973 497.75ZM289.973 78.8848C174.94 78.8848 81.3361 172.488 81.3361 287.521C81.3361 402.554 174.94 496.158 289.973 496.158C405.006 496.158 498.609 402.554 498.609 287.521C498.609 172.488 405.006 78.8848 289.973 78.8848Z" fill="white" style="fill:white;fill-opacity:1;"/>
<path d="M289.973 481.635C182.924 481.635 95.8594 394.546 95.8594 287.521C95.8594 180.497 182.948 93.4077 289.973 93.4077C396.998 93.4077 484.087 180.497 484.087 287.521C484.087 394.546 396.998 481.635 289.973 481.635ZM289.973 94.9996C183.806 94.9996 97.4513 181.378 97.4513 287.521C97.4513 393.664 183.83 480.043 289.973 480.043C396.116 480.043 482.495 393.664 482.495 287.521C482.495 181.378 396.116 94.9996 289.973 94.9996Z" fill="white" style="fill:white;fill-opacity:1;"/>
<path d="M289.971 465.52C191.812 465.52 111.973 385.656 111.973 287.521C111.973 189.387 191.837 109.523 289.971 109.523C388.106 109.523 467.97 189.387 467.97 287.521C467.97 385.656 388.106 465.52 289.971 465.52ZM289.971 111.115C192.694 111.115 113.565 190.244 113.565 287.521C113.565 384.799 192.694 463.928 289.971 463.928C387.249 463.928 466.378 384.799 466.378 287.521C466.378 190.244 387.249 111.115 289.971 111.115Z" fill="white" style="fill:white;fill-opacity:1;"/>
<path d="M289.975 449.43C200.706 449.43 128.066 376.815 128.066 287.521C128.066 198.228 200.681 125.613 289.975 125.613C379.268 125.613 451.883 198.228 451.883 287.521C451.883 376.815 379.268 449.43 289.975 449.43ZM289.975 127.205C201.588 127.205 129.658 199.11 129.658 287.521C129.658 375.933 201.563 447.838 289.975 447.838C378.386 447.838 450.291 375.933 450.291 287.521C450.291 199.11 378.386 127.205 289.975 127.205Z" fill="white" style="fill:white;fill-opacity:1;"/>
<path d="M289.969 433.315C209.591 433.315 144.176 367.924 144.176 287.521C144.176 207.118 209.566 141.728 289.969 141.728C370.372 141.728 435.763 207.118 435.763 287.521C435.763 367.924 370.372 433.315 289.969 433.315ZM289.969 143.32C210.448 143.32 145.768 208 145.768 287.521C145.768 367.043 210.448 431.723 289.969 431.723C369.491 431.723 434.171 367.043 434.171 287.521C434.171 208 369.491 143.32 289.969 143.32Z" fill="white" style="fill:white;fill-opacity:1;"/>
<path d="M289.968 417.2C218.455 417.2 160.289 359.034 160.289 287.521C160.289 216.008 218.455 157.843 289.968 157.843C361.481 157.843 419.646 216.008 419.646 287.521C419.646 359.034 361.481 417.2 289.968 417.2ZM289.968 159.435C219.336 159.435 161.881 216.89 161.881 287.521C161.881 358.153 219.336 415.608 289.968 415.608C360.599 415.608 418.054 358.153 418.054 287.521C418.054 216.89 360.599 159.435 289.968 159.435Z" fill="white" style="fill:white;fill-opacity:1;"/>
<path d="M223.873 40.1649H223.09V53.7573C222.379 53.2675 221.253 53.194 220.2 53.6593C218.755 54.2961 217.947 55.7165 218.436 56.8186C218.926 57.9207 220.494 58.2636 221.963 57.6268C223.09 57.137 223.8 56.1819 223.849 55.2757V40.1649H223.873Z" fill="white" style="fill:white;fill-opacity:1;"/>
<path d="M522.311 390.897H519.617V438.115C517.119 436.401 513.225 436.156 509.551 437.797C504.506 440.025 501.763 444.948 503.429 448.719C505.118 452.515 510.58 453.764 515.649 451.536C519.568 449.797 522.066 446.515 522.237 443.356H522.311V390.897Z" fill="white" style="fill:white;fill-opacity:1;"/>
<path d="M328.737 521.922H327.415V545.017C326.19 544.184 324.304 544.062 322.492 544.87C320.019 545.972 318.672 548.372 319.504 550.209C320.337 552.07 323.006 552.682 325.48 551.58C327.39 550.748 328.615 549.131 328.713 547.588H328.762V521.922H328.737Z" fill="white" style="fill:white;fill-opacity:1;"/>
<path d="M366.328 62.4514H364.883V87.6768C363.56 86.7707 361.478 86.6237 359.495 87.5054C356.801 88.7054 355.331 91.3259 356.213 93.3587C357.119 95.3914 360.034 96.0527 362.728 94.8526C364.809 93.922 366.156 92.1586 366.254 90.4688H366.303V62.4269L366.328 62.4514Z" fill="white" style="fill:white;fill-opacity:1;"/>
<path d="M144.766 412.669L132.961 415.363V418.424V428.515C132.324 428.245 131.492 428.245 130.684 428.613C129.361 429.2 128.651 430.474 129.092 431.453C129.532 432.433 130.953 432.751 132.251 432.188C133.182 431.772 133.818 431.013 133.941 430.253V430.204C133.941 430.033 133.965 429.886 133.941 429.715V418.179L143.762 415.828V426.016C143.125 425.747 142.268 425.747 141.459 426.114C140.137 426.702 139.427 427.976 139.868 428.955C140.308 429.935 141.729 430.278 143.027 429.69C144.129 429.2 144.79 428.245 144.717 427.363V415.608V412.645L144.766 412.669Z" fill="white" style="fill:white;fill-opacity:1;"/>
<path d="M144.051 155.075L120.761 160.39V166.464V186.399C119.512 185.86 117.846 185.885 116.254 186.595C113.658 187.746 112.262 190.244 113.12 192.203C113.977 194.163 116.769 194.775 119.365 193.648C121.201 192.816 122.426 191.322 122.695 189.803V189.705C122.744 189.387 122.744 189.069 122.695 188.75V165.998L142.043 161.37V181.452C140.794 180.913 139.104 180.913 137.512 181.648C134.916 182.799 133.52 185.297 134.378 187.256C135.235 189.191 138.051 189.852 140.623 188.701C142.778 187.746 144.1 185.836 143.978 184.121V160.929V155.1L144.051 155.075Z" fill="white" style="fill:white;fill-opacity:1;"/>
<path d="M546.755 194.408L526.257 199.085V204.424V221.96C525.155 221.494 523.685 221.519 522.289 222.131C520.011 223.135 518.787 225.339 519.522 227.054C520.281 228.768 522.754 229.331 525.032 228.327C526.648 227.592 527.726 226.27 527.946 224.947V224.874C527.995 224.58 527.995 224.311 527.946 224.017V204.008L544.992 199.942V217.625C543.89 217.135 542.396 217.159 541 217.796C538.722 218.8 537.498 221.004 538.233 222.719C538.992 224.433 541.465 224.996 543.743 223.992C545.653 223.16 546.804 221.47 546.706 219.951V199.551V194.432L546.755 194.408Z" fill="white" style="fill:white;fill-opacity:1;"/>
<path d="M63.7739 204.865L47.2182 208.661V212.972V227.152C46.3365 226.76 45.1365 226.784 44.0099 227.299C42.1731 228.107 41.169 229.895 41.7812 231.291C42.3935 232.687 44.3773 233.127 46.2386 232.319C47.5611 231.731 48.4182 230.654 48.5897 229.601V229.527C48.6141 229.307 48.6141 229.062 48.5897 228.842V212.678L62.3535 209.396V223.674C61.4718 223.282 60.2717 223.307 59.1207 223.796C57.2839 224.605 56.2797 226.392 56.892 227.788C57.5043 229.184 59.4881 229.625 61.3493 228.817C62.8923 228.131 63.8229 226.784 63.725 225.56V209.078V204.939L63.7739 204.865Z" fill="white" style="fill:white;fill-opacity:1;"/>
<path d="M497.602 178.097L464.711 169.451C464.711 170.382 464.735 180.913 464.735 204.424C462.972 203.665 460.645 203.714 458.416 204.694C454.792 206.31 452.833 209.812 454.033 212.531C455.233 215.249 459.151 216.155 462.776 214.539C465.96 213.118 467.87 210.253 467.454 207.731V178.121L494.712 184.881V215.935C492.973 215.2 490.646 215.225 488.418 216.204C484.793 217.821 482.834 221.323 484.034 224.041C485.234 226.76 489.152 227.666 492.777 226.05C496.01 224.629 497.895 221.69 497.43 219.143C497.43 177.827 497.381 184.023 497.577 178.072L497.602 178.097Z" fill="white" style="fill:white;fill-opacity:1;"/>
<path d="M463.07 404.489L453.201 401.893C453.201 402.162 453.201 405.322 453.201 412.375C452.686 412.155 451.976 412.155 451.315 412.449C450.237 412.938 449.649 413.992 449.992 414.8C450.36 415.608 451.535 415.877 452.613 415.412C453.568 414.996 454.131 414.138 454.009 413.379V404.489L462.189 406.522V415.828C461.674 415.608 460.964 415.608 460.303 415.902C459.225 416.392 458.637 417.445 458.98 418.253C459.348 419.061 460.523 419.33 461.601 418.865C462.556 418.424 463.144 417.567 462.997 416.783C462.997 404.391 462.997 406.252 463.046 404.465L463.07 404.489Z" fill="white" style="fill:white;fill-opacity:1;"/>
<path d="M100.437 254.14L86.3299 250.442C86.3299 250.834 86.3299 255.365 86.3299 265.431C85.5707 265.112 84.5666 265.112 83.6115 265.553C82.0685 266.239 81.2114 267.757 81.7257 268.908C82.24 270.084 83.9299 270.451 85.4728 269.766C86.8443 269.153 87.6524 267.929 87.481 266.851V254.165L99.1631 257.055V270.353C98.4039 270.035 97.4242 270.059 96.4691 270.476C94.9017 271.162 94.069 272.68 94.5833 273.831C95.0976 275.007 96.7875 275.374 98.3304 274.688C99.7019 274.076 100.535 272.827 100.314 271.725C100.314 254.018 100.314 256.688 100.363 254.14H100.437Z" fill="white" style="fill:white;fill-opacity:1;"/>
<path d="M432.434 127.18L421.316 124.266C421.316 124.584 421.316 128.136 421.316 136.095C420.728 135.85 419.944 135.85 419.185 136.193C417.96 136.732 417.299 137.932 417.691 138.838C418.107 139.769 419.43 140.063 420.654 139.524C421.732 139.058 422.369 138.079 422.246 137.222V127.205L431.455 129.483V139.989C430.867 139.744 430.083 139.744 429.324 140.087C428.099 140.626 427.438 141.826 427.83 142.732C428.246 143.663 429.569 143.957 430.793 143.418C431.896 142.928 432.532 141.948 432.361 141.091C432.361 127.131 432.361 129.238 432.41 127.205L432.434 127.18Z" fill="white" style="fill:white;fill-opacity:1;"/>
<path d="M99.3326 126.764L76.0419 132.079V138.152V158.088C74.7929 157.549 73.1275 157.573 71.5356 158.284C68.9396 159.435 67.5436 161.933 68.4008 163.892C69.258 165.851 72.0744 166.488 74.6704 165.337C76.5072 164.504 77.7318 163.01 78.0012 161.492V161.394C78.0501 161.076 78.0501 160.733 78.0012 160.414V140.92L97.3733 136.413V153.141C96.1243 152.602 94.4345 152.602 92.8181 153.337C90.222 154.488 88.8261 156.986 89.6833 158.945C90.5404 160.88 93.3569 161.541 95.9529 160.39C98.1081 159.435 99.4306 157.524 99.3081 155.81V132.617V126.789L99.3326 126.764ZM97.3733 134.43L78.0012 138.936V137.711L97.3733 133.083V134.43Z" fill="white" style="fill:white;fill-opacity:1;"/>
<path d="M317.573 25.0296L304.813 27.944V31.2747V42.1976C304.127 41.9037 303.221 41.9282 302.339 42.2955C300.919 42.9323 300.16 44.3038 300.625 45.3569C301.09 46.4345 302.633 46.7773 304.054 46.1406C305.058 45.6998 305.744 44.8671 305.866 44.0344V43.9854C305.891 43.814 305.891 43.618 305.866 43.4466V32.7686L316.471 30.2951V39.4546C315.785 39.1607 314.854 39.1607 313.972 39.5526C312.552 40.1893 311.793 41.5608 312.258 42.6139C312.723 43.6915 314.266 44.0344 315.687 43.3976C316.862 42.8833 317.597 41.8302 317.524 40.8751V28.1644V24.9806L317.573 25.0296ZM316.495 29.2175L305.891 31.691V31.0053L316.495 28.4828V29.2175Z" fill="white" style="fill:white;fill-opacity:1;"/>
<path d="M112.853 324.062L84.5906 330.527V337.899V362.071C83.0722 361.434 81.0394 361.459 79.1047 362.316C75.9698 363.712 74.2555 366.749 75.3086 369.124C76.3617 371.5 79.7659 372.259 82.9007 370.863C85.1539 369.859 86.6233 368.022 86.9417 366.21V366.112C86.9907 365.72 86.9907 365.328 86.9417 364.937V341.254L110.428 335.793V356.095C108.91 355.434 106.853 355.459 104.918 356.316C101.783 357.712 100.069 360.749 101.122 363.124C102.175 365.475 105.579 366.259 108.714 364.863C111.334 363.688 112.926 361.385 112.779 359.304V331.139V324.062H112.853ZM110.477 333.343L86.9907 338.805V337.311L110.477 331.703V333.343Z" fill="white" style="fill:white;fill-opacity:1;"/>
<path d="M284.19 480.876L272.949 483.447V486.386V496.011C272.337 495.741 271.528 495.766 270.769 496.109C269.52 496.672 268.834 497.872 269.251 498.803C269.667 499.733 271.014 500.052 272.263 499.489C273.145 499.097 273.757 498.362 273.855 497.627V497.578C273.855 497.431 273.855 497.26 273.855 497.113V487.684L283.21 485.504V493.586C282.598 493.317 281.79 493.341 281.006 493.684C279.757 494.248 279.072 495.448 279.488 496.378C279.904 497.309 281.251 497.627 282.5 497.064C283.553 496.599 284.166 495.692 284.117 494.86V483.668V480.851L284.19 480.876ZM283.259 484.574L273.904 486.753V486.166L283.259 483.937V484.598V484.574Z" fill="white" style="fill:white;fill-opacity:1;"/>
<path d="M502.426 256.541C500.981 253.283 496.279 252.206 491.919 254.116C488.099 255.806 485.821 259.259 486.287 262.271V306.208H488.613V265.749C490.768 267.145 494.05 267.341 497.16 265.945C501.52 264.01 503.871 259.798 502.426 256.541Z" fill="white" style="fill:white;fill-opacity:1;"/>
<path d="M73.2492 379.19C71.7797 375.884 67.0286 374.806 62.6202 376.741C58.7507 378.455 56.4485 381.933 56.9383 384.994V429.445H59.2895V388.497C61.4692 389.917 64.7754 390.088 67.9347 388.717C72.343 386.758 74.7186 382.496 73.2737 379.19H73.2492Z" fill="white" style="fill:white;fill-opacity:1;"/>
<path d="M519.909 344.193C519.345 342.895 517.484 342.479 515.77 343.238C514.276 343.899 513.37 345.271 513.566 346.446V363.761H514.472V347.818C515.329 348.381 516.602 348.43 517.827 347.891C519.541 347.132 520.472 345.466 519.909 344.193Z" fill="white" style="fill:white;fill-opacity:1;"/>
<path d="M121.055 461.748C120.174 459.789 117.357 459.128 114.712 460.303C112.41 461.332 111.038 463.389 111.332 465.226V491.676H112.728V467.308C114.026 468.14 115.986 468.263 117.871 467.43C120.492 466.255 121.912 463.732 121.055 461.773V461.748Z" fill="white" style="fill:white;fill-opacity:1;"/>
<path d="M498.73 139.132C498.534 138.618 497.971 138.373 497.456 138.569C496.942 138.765 496.697 139.328 496.893 139.842C498.362 143.761 494.762 146.43 490.942 148.806L490.183 149.271C488.468 150.373 487.293 151.279 486.484 152.088V121.401C488.297 122.601 491.089 122.772 493.734 121.597C497.407 119.956 499.416 116.405 498.191 113.637C496.966 110.87 492.974 109.963 489.301 111.58C486.166 112.976 484.28 115.743 484.525 118.241V155.908C484.525 156.447 484.966 156.888 485.505 156.888C486.044 156.888 486.484 156.447 486.484 155.908V155.835C486.827 154.561 487.464 153.361 491.236 150.936L491.97 150.471C495.081 148.536 500.909 144.912 498.73 139.156V139.132Z" fill="white" style="fill:white;fill-opacity:1;"/>
<path d="M201.12 113.27C201.022 113.025 200.752 112.902 200.483 112.976C200.238 113.074 200.116 113.343 200.189 113.613C200.924 115.572 199.136 116.87 197.226 118.07L196.858 118.315C196.001 118.854 195.438 119.319 195.021 119.711V104.478C195.928 105.065 197.299 105.163 198.622 104.576C200.458 103.767 201.438 102.004 200.826 100.633C200.213 99.2611 198.23 98.7958 196.417 99.604C194.874 100.29 193.919 101.661 194.042 102.91V121.621C194.042 121.891 194.262 122.111 194.532 122.111C194.801 122.111 195.021 121.891 195.021 121.621C195.193 120.96 195.511 120.348 197.397 119.148L197.764 118.927C199.307 117.972 202.197 116.16 201.12 113.294V113.27Z" fill="white" style="fill:white;fill-opacity:1;"/>
<path d="M405.881 532.037C405.636 531.376 404.902 531.033 404.24 531.302C403.579 531.547 403.236 532.282 403.506 532.943C405.44 538.062 400.738 541.515 395.767 544.601L394.787 545.213C392.558 546.633 391.04 547.809 389.962 548.887V508.942C392.338 510.51 395.962 510.705 399.391 509.187C404.191 507.056 406.763 502.428 405.195 498.827C403.604 495.227 398.412 494.052 393.611 496.158C389.546 497.97 387.072 501.57 387.391 504.803V553.809C387.391 554.519 387.954 555.083 388.664 555.083C389.374 555.083 389.938 554.519 389.938 553.809V553.711C390.403 552.046 391.211 550.503 396.134 547.344L397.089 546.756C401.155 544.233 408.722 539.531 405.881 532.012V532.037Z" fill="white" style="fill:white;fill-opacity:1;"/>
<path d="M144.543 94.5098C144.445 94.2894 144.2 94.1669 143.98 94.2649C143.759 94.3629 143.637 94.6078 143.735 94.8282C144.396 96.5915 142.78 97.7916 141.065 98.8447L140.723 99.0651C139.963 99.5549 139.425 99.9712 139.057 100.339V86.5503C139.865 87.0891 141.114 87.1626 142.315 86.6483C143.98 85.9136 144.862 84.3217 144.323 83.0726C143.784 81.8236 141.972 81.4318 140.331 82.142C138.935 82.7543 138.078 84.0033 138.176 85.1299V102.053C138.176 102.298 138.372 102.494 138.616 102.494C138.861 102.494 139.057 102.298 139.057 102.053C139.204 101.441 139.498 100.902 141.188 99.8243L141.506 99.6284C142.902 98.7467 145.523 97.1303 144.543 94.5343V94.5098Z" fill="white" style="fill:white;fill-opacity:1;"/>
<path d="M556.135 287.423C556.772 287.423 557.287 286.909 557.287 286.272C557.287 285.636 556.772 285.121 556.135 285.121C555.499 285.121 554.984 285.636 554.984 286.272C554.984 286.909 555.499 287.423 556.135 287.423Z" fill="white" style="fill:white;fill-opacity:1;"/>
<path d="M556.135 289.995C555.499 289.995 554.984 290.509 554.984 291.146C554.984 291.783 555.499 292.297 556.135 292.297C556.772 292.297 557.287 291.783 557.287 291.146C557.287 290.509 556.772 289.995 556.135 289.995Z" fill="white" style="fill:white;fill-opacity:1;"/>
<path d="M551.774 282.77C550.99 282.256 550.108 281.938 549.251 281.815C548.394 281.693 547.537 281.742 546.778 281.938C546.018 282.133 545.333 282.501 544.818 282.942C542.296 285.072 543.153 288.109 545.406 288.109C546.582 288.109 547.537 287.154 547.537 285.978C547.537 285.146 547.072 284.46 546.386 284.093C546.631 283.921 546.925 283.75 547.267 283.627C548.296 283.26 549.741 283.284 551.015 283.995C551.651 284.338 552.215 284.876 552.606 285.513C553.023 286.174 553.243 286.958 553.341 287.766C553.439 288.599 553.366 289.456 553.243 290.289C553.121 291.122 552.9 291.93 552.606 292.664C552.019 294.158 551.162 295.456 550.329 296.436C549.472 297.44 548.639 298.126 548.027 298.591C547.414 299.057 547.047 299.277 547.047 299.277C546.974 299.326 546.925 299.424 546.974 299.522C547.023 299.62 547.121 299.644 547.219 299.595C547.219 299.595 547.61 299.375 548.272 298.934C548.908 298.493 549.79 297.783 550.721 296.803C551.651 295.824 552.606 294.55 553.317 292.983C553.66 292.199 553.953 291.342 554.125 290.46C554.296 289.579 554.394 288.648 554.37 287.717C554.345 286.762 554.125 285.807 553.66 284.925C553.219 284.044 552.533 283.309 551.749 282.795L551.774 282.77Z" fill="white" style="fill:white;fill-opacity:1;"/>
<path d="M397.073 463.879C399.008 463.879 400.6 462.287 400.6 460.353C400.6 458.418 399.033 456.826 397.073 456.826C395.114 456.826 393.547 458.393 393.547 460.353C393.547 462.312 395.139 463.879 397.073 463.879Z" fill="white" style="fill:white;fill-opacity:1;"/>
<path d="M397.073 471.79C395.139 471.79 393.547 473.357 393.547 475.316C393.547 477.276 395.139 478.843 397.073 478.843C399.008 478.843 400.6 477.276 400.6 475.316C400.6 473.357 399.033 471.79 397.073 471.79Z" fill="white" style="fill:white;fill-opacity:1;"/>
<path d="M383.627 449.552C381.202 447.936 378.508 446.981 375.863 446.589C373.218 446.197 370.622 446.368 368.271 446.981C365.944 447.593 363.863 448.695 362.246 450.042C354.483 456.556 357.152 465.912 364.083 465.912C367.708 465.912 370.647 462.973 370.647 459.348C370.647 456.826 369.202 454.646 367.095 453.544C367.83 452.981 368.736 452.466 369.789 452.124C372.924 450.997 377.431 451.071 381.3 453.25C383.235 454.328 384.949 455.92 386.174 457.952C387.423 459.961 388.157 462.361 388.451 464.883C388.721 467.455 388.525 470.051 388.158 472.622C387.766 475.169 387.08 477.643 386.174 479.945C384.386 484.574 381.741 488.492 379.145 491.529C376.549 494.591 373.928 496.746 372.092 498.191C370.206 499.611 369.055 500.272 369.055 500.272C368.81 500.419 368.712 500.738 368.834 501.007C368.981 501.277 369.3 501.374 369.569 501.228C369.569 501.228 370.818 500.566 372.777 499.17C374.761 497.774 377.455 495.619 380.32 492.607C383.161 489.594 386.149 485.651 388.304 480.851C389.382 478.451 390.264 475.855 390.827 473.112C391.39 470.394 391.684 467.528 391.611 464.663C391.488 461.748 390.851 458.761 389.456 456.091C388.084 453.422 385.978 451.144 383.578 449.552H383.627Z" fill="white" style="fill:white;fill-opacity:1;"/>
<path d="M201.925 486.264C203.566 486.264 204.889 484.941 204.889 483.276C204.889 481.61 203.566 480.312 201.925 480.312C200.284 480.312 198.938 481.635 198.938 483.276C198.938 484.917 200.26 486.264 201.925 486.264Z" fill="white" style="fill:white;fill-opacity:1;"/>
<path d="M201.925 492.925C200.284 492.925 198.938 494.248 198.938 495.889C198.938 497.529 200.26 498.852 201.925 498.852C203.591 498.852 204.889 497.529 204.889 495.889C204.889 494.248 203.566 492.925 201.925 492.925Z" fill="white" style="fill:white;fill-opacity:1;"/>
<path d="M190.584 474.165C188.552 472.818 186.25 472.01 184.021 471.667C181.792 471.324 179.588 471.471 177.629 472.01C175.67 472.524 173.906 473.455 172.559 474.606C166.02 480.116 168.249 488.002 174.102 488.002C177.163 488.002 179.637 485.529 179.637 482.468C179.637 480.337 178.413 478.5 176.649 477.569C177.261 477.104 178.021 476.663 178.927 476.369C181.572 475.414 185.368 475.488 188.625 477.324C190.242 478.231 191.711 479.578 192.74 481.292C193.793 482.982 194.429 485.015 194.65 487.145C194.87 489.3 194.723 491.505 194.405 493.66C194.062 495.815 193.499 497.897 192.74 499.831C191.221 503.725 188.993 507.056 186.813 509.628C184.609 512.224 182.429 514.036 180.862 515.236C179.27 516.436 178.315 516.999 178.315 516.999C178.094 517.122 178.021 517.391 178.143 517.612C178.266 517.832 178.535 517.93 178.755 517.808C178.755 517.808 179.809 517.244 181.474 516.069C183.139 514.893 185.417 513.056 187.841 510.534C190.242 507.987 192.764 504.656 194.576 500.615C195.483 498.582 196.217 496.403 196.707 494.101C197.172 491.823 197.417 489.398 197.368 486.974C197.27 484.525 196.732 482.002 195.556 479.749C194.405 477.496 192.617 475.586 190.584 474.214V474.165Z" fill="white" style="fill:white;fill-opacity:1;"/>
<path d="M462.779 474.802C463.465 474.802 464.004 474.263 464.004 473.577C464.004 472.892 463.465 472.353 462.779 472.353C462.093 472.353 461.555 472.892 461.555 473.577C461.555 474.263 462.093 474.802 462.779 474.802Z" fill="white" style="fill:white;fill-opacity:1;"/>
<path d="M462.779 477.545C462.093 477.545 461.555 478.084 461.555 478.769C461.555 479.455 462.093 479.994 462.779 479.994C463.465 479.994 464.004 479.455 464.004 478.769C464.004 478.084 463.465 477.545 462.779 477.545Z" fill="white" style="fill:white;fill-opacity:1;"/>
<path d="M458.127 469.806C457.295 469.243 456.339 468.924 455.433 468.777C454.503 468.63 453.621 468.704 452.788 468.924C451.98 469.145 451.245 469.512 450.707 469.977C448.013 472.23 448.943 475.488 451.343 475.488C452.592 475.488 453.621 474.459 453.621 473.21C453.621 472.328 453.107 471.569 452.396 471.202C452.641 471.006 452.96 470.834 453.327 470.712C454.405 470.32 455.972 470.345 457.319 471.104C457.98 471.471 458.592 472.035 459.009 472.745C459.45 473.43 459.695 474.288 459.793 475.145C459.891 476.027 459.817 476.933 459.695 477.839C459.548 478.72 459.327 479.578 459.009 480.386C458.397 482.002 457.466 483.349 456.56 484.427C455.654 485.504 454.747 486.239 454.111 486.729C453.449 487.219 453.058 487.464 453.058 487.464C452.96 487.513 452.935 487.635 452.984 487.709C453.033 487.807 453.156 487.831 453.229 487.782C453.229 487.782 453.67 487.562 454.356 487.072C455.041 486.582 455.972 485.823 456.976 484.794C457.956 483.741 459.009 482.37 459.744 480.704C460.111 479.872 460.429 478.965 460.625 478.01C460.821 477.08 460.919 476.076 460.895 475.071C460.846 474.067 460.625 473.014 460.135 472.108C459.67 471.177 458.935 470.394 458.078 469.83L458.127 469.806Z" fill="white" style="fill:white;fill-opacity:1;"/>
<path d="M52.0188 312.869C51.1126 310.763 49.4718 309 47.4145 308.069C45.4308 307.138 43.1777 307.065 41.3164 307.579C40.2143 307.873 39.2836 308.338 38.4509 308.902C38.3774 308.412 38.2795 307.922 38.206 307.408C38.0591 306.453 37.9121 305.473 37.7652 304.493C38.6468 303.636 39.504 302.73 40.2632 301.726C42.1245 299.424 43.496 296.583 43.8144 293.571C44.7205 284.558 41.8551 280.248 39.504 280.468C34.41 281.252 35.0712 289.946 36.0753 298.983C35.3896 299.84 34.6793 300.673 33.8712 301.432L32.4507 302.828C31.9854 303.269 31.4711 303.808 30.9813 304.395C28.9975 306.575 27.3811 309.098 26.426 311.988C25.4464 314.853 25.4953 318.257 26.9648 320.951C28.3852 323.67 30.8098 325.506 33.3569 326.511C35.8549 327.466 38.4019 327.809 40.8755 327.637C41.1204 328.935 41.3408 330.184 41.5123 331.36C42.296 334.495 41.1694 337.311 39.2346 338.266C37.7652 338.927 36.3937 338.585 35.4876 337.972C35.5855 337.972 35.6835 338.021 35.7814 338.021C37.2264 338.07 38.4509 336.919 38.4999 335.474C38.5489 334.005 37.3733 332.805 35.9284 332.78C34.4834 332.756 33.2589 333.882 33.2344 335.352C33.2344 335.474 33.2344 335.572 33.2344 335.695C33.2344 335.695 33.2344 335.695 33.2344 335.719C33.3079 336.307 33.5528 336.821 33.9201 337.238C33.9936 337.335 34.0671 337.433 34.1406 337.531C34.5569 338.046 35.2182 338.585 36.1488 338.952C37.0795 339.295 38.2305 339.417 39.4796 339.025C40.7286 338.634 41.9286 337.531 42.4674 336.062C42.7613 335.352 42.9572 334.519 42.9327 333.686C42.9082 332.78 42.7858 332.046 42.6878 331.188C42.5164 330.013 42.296 328.788 42.0511 327.515C44.2552 327.221 46.337 326.486 48.1983 325.409C50.28 324.086 51.8964 322.053 52.4841 319.702C53.1454 317.376 52.876 314.926 51.9698 312.82L52.0188 312.869ZM40.6551 283.823C41.6837 284.142 41.8062 285.562 41.8062 286.444C41.7572 288.574 41.2429 290.681 40.2388 292.542C39.2591 294.33 38.2305 296.02 37.1039 297.661C36.5407 288.623 38.6224 283.162 40.6796 283.799L40.6551 283.823ZM34.263 324.551C32.2058 323.474 30.3935 321.808 29.5608 319.751C28.7281 317.694 28.8995 315.392 29.8547 313.286C30.8098 311.204 32.4507 309.269 34.2385 307.604C34.6548 307.212 35.1202 306.796 35.659 306.355L36.3937 305.742C36.5651 305.595 36.7611 305.449 36.9325 305.302C37.055 306.061 37.1529 306.845 37.2754 307.604C37.3733 308.289 37.4958 308.926 37.5938 309.612C36.0264 310.959 35.0712 312.698 34.6794 314.241C34.0426 316.837 34.6059 318.869 35.0957 320.07C35.3406 320.682 35.5855 321.123 35.757 321.392C35.9284 321.686 36.0264 321.833 36.0264 321.833C36.0264 321.833 35.8549 321.147 35.708 319.923C35.61 318.698 35.5855 316.837 36.4917 314.902C36.8346 314.118 37.3978 313.31 38.0836 312.624C38.5734 315.392 39.0387 318.086 39.5285 320.608C39.8714 322.568 40.2388 324.453 40.5816 326.217C38.402 326.192 36.1978 325.678 34.263 324.649V324.551ZM51.0637 319.433C50.7698 321.417 49.4963 323.302 47.586 324.404C45.8961 325.384 43.8879 325.972 41.8062 326.094C41.4388 324.233 41.0469 322.298 40.6306 320.29C40.0673 317.62 39.504 314.755 38.9652 311.792C39.8224 311.155 40.851 310.641 42.0021 310.396C44.6716 309.857 47.8798 310.959 49.8146 313.996C50.7942 315.49 51.3576 317.425 51.0637 319.433Z" fill="white" style="fill:white;fill-opacity:1;"/>
<path d="M249.17 542.47C248.681 541.294 247.774 540.315 246.623 539.825C245.521 539.311 244.297 539.262 243.244 539.556C242.631 539.727 242.117 539.972 241.652 540.29C241.603 540.021 241.554 539.752 241.505 539.458C241.407 538.919 241.333 538.38 241.26 537.841C241.75 537.376 242.215 536.862 242.631 536.323C243.66 535.049 244.419 533.482 244.591 531.817C245.105 526.845 243.513 524.445 242.215 524.567C239.399 524.984 239.766 529.808 240.329 534.804C239.937 535.27 239.546 535.735 239.105 536.151L238.321 536.935C238.052 537.18 237.782 537.474 237.513 537.792C236.411 538.992 235.529 540.388 234.99 541.98C234.451 543.572 234.476 545.458 235.284 546.927C236.068 548.421 237.415 549.45 238.811 550.013C240.182 550.528 241.603 550.723 242.974 550.65C243.097 551.36 243.244 552.046 243.342 552.707C243.758 554.446 243.146 555.989 242.093 556.528C241.284 556.895 240.525 556.699 240.011 556.381C240.06 556.381 240.133 556.381 240.182 556.381C240.991 556.405 241.652 555.769 241.676 554.96C241.676 554.152 241.064 553.491 240.256 553.466C239.448 553.466 238.786 554.079 238.762 554.887C238.762 554.96 238.762 555.009 238.762 555.083C238.811 555.401 238.933 555.695 239.154 555.915C239.203 555.964 239.227 556.038 239.276 556.087C239.521 556.381 239.888 556.675 240.378 556.871C240.893 557.067 241.529 557.14 242.215 556.92C242.901 556.699 243.562 556.087 243.856 555.279C244.003 554.887 244.125 554.422 244.101 553.981C244.101 553.491 244.027 553.075 243.954 552.609C243.856 551.972 243.733 551.287 243.611 550.576C244.836 550.405 245.987 550.013 247.015 549.401C248.166 548.666 249.048 547.54 249.391 546.242C249.758 544.968 249.611 543.597 249.097 542.446L249.17 542.47ZM242.901 526.429C243.464 526.6 243.538 527.384 243.538 527.874C243.538 529.049 243.219 530.225 242.656 531.253C242.117 532.233 241.554 533.188 240.917 534.094C240.599 529.098 241.75 526.086 242.901 526.429ZM239.374 548.936C238.223 548.348 237.243 547.417 236.778 546.266C236.313 545.14 236.411 543.866 236.925 542.69C237.464 541.539 238.37 540.486 239.35 539.556C239.57 539.335 239.839 539.115 240.133 538.87L240.55 538.527C240.55 538.527 240.746 538.356 240.844 538.282C240.917 538.698 240.966 539.139 241.039 539.556C241.088 539.923 241.162 540.29 241.211 540.658C240.354 541.417 239.815 542.372 239.595 543.205C239.252 544.65 239.57 545.752 239.815 546.413C239.962 546.756 240.084 547.001 240.182 547.148C240.28 547.295 240.329 547.393 240.329 547.393C240.329 547.393 240.231 547.025 240.158 546.34C240.109 545.654 240.084 544.625 240.574 543.548C240.77 543.107 241.064 542.666 241.456 542.274C241.725 543.817 241.995 545.286 242.24 546.682C242.435 547.76 242.631 548.813 242.827 549.793C241.627 549.793 240.403 549.499 239.325 548.911L239.374 548.936ZM248.656 546.095C248.509 547.197 247.774 548.25 246.721 548.838C245.791 549.376 244.689 549.695 243.538 549.768C243.342 548.74 243.121 547.687 242.876 546.56C242.558 545.091 242.24 543.499 241.946 541.858C242.411 541.49 242.974 541.221 243.635 541.099C245.105 540.805 246.893 541.392 247.97 543.082C248.509 543.915 248.828 544.968 248.656 546.07V546.095Z" fill="white" style="fill:white;fill-opacity:1;"/>
<path d="M285.561 89.2198C285.072 88.0687 284.166 87.1136 283.039 86.5993C281.961 86.1095 280.737 86.0605 279.708 86.3299C279.12 86.5013 278.582 86.7462 278.141 87.0646C278.092 86.7952 278.043 86.5258 277.994 86.2564C277.896 85.7421 277.822 85.2033 277.749 84.6645C278.239 84.1992 278.704 83.7094 279.12 83.1706C280.149 81.8971 280.884 80.3542 281.055 78.7133C281.545 73.7906 279.978 71.4395 278.704 71.562C275.912 71.9783 276.28 76.754 276.843 81.6766C276.475 82.142 276.084 82.5828 275.643 83.0236L274.859 83.7829C274.59 84.0278 274.32 84.3217 274.051 84.64C272.973 85.8401 272.092 87.2116 271.553 88.779C271.014 90.3464 271.038 92.2077 271.847 93.6771C272.63 95.1711 273.953 96.1752 275.324 96.714C276.696 97.2283 278.092 97.4242 279.439 97.3262C279.561 98.0365 279.684 98.7222 279.782 99.359C280.198 101.073 279.61 102.616 278.533 103.131C277.724 103.498 276.99 103.302 276.475 102.984C276.524 102.984 276.573 102.984 276.647 102.984C277.431 103.008 278.116 102.371 278.141 101.588C278.141 100.779 277.529 100.143 276.745 100.118C275.961 100.118 275.3 100.73 275.275 101.514C275.275 101.588 275.275 101.637 275.275 101.71C275.3 102.028 275.447 102.322 275.643 102.543C275.692 102.592 275.716 102.641 275.765 102.714C276.01 102.984 276.353 103.302 276.867 103.498C277.382 103.669 277.994 103.767 278.68 103.547C279.365 103.326 280.002 102.739 280.32 101.93C280.467 101.539 280.59 101.098 280.565 100.632C280.565 100.143 280.492 99.7263 280.418 99.261C280.32 98.6243 280.198 97.9385 280.076 97.2528C281.276 97.0813 282.427 96.6895 283.431 96.1017C284.557 95.367 285.439 94.2649 285.782 92.9914C286.149 91.7179 286.002 90.3709 285.488 89.2443L285.561 89.2198ZM279.341 73.3498C279.904 73.5212 279.978 74.3049 279.978 74.7703C279.978 75.9213 279.684 77.0969 279.12 78.101C278.582 79.0806 278.018 80.0113 277.406 80.8929C277.088 75.9703 278.239 72.9579 279.365 73.3253L279.341 73.3498ZM275.863 95.5874C274.737 94.9996 273.757 94.0935 273.292 92.9669C272.826 91.8403 272.924 90.5913 273.439 89.4402C273.953 88.2892 274.859 87.2605 275.839 86.3299C276.059 86.1095 276.328 85.8891 276.622 85.6442L277.014 85.3013C277.014 85.3013 277.21 85.1298 277.308 85.0564C277.382 85.4727 277.431 85.8891 277.504 86.3054C277.553 86.6728 277.626 87.0401 277.675 87.4075C276.818 88.1422 276.304 89.0974 276.084 89.93C275.741 91.3505 276.059 92.4526 276.304 93.1138C276.451 93.4567 276.573 93.6771 276.671 93.8486C276.769 93.9955 276.818 94.0935 276.818 94.0935C276.818 94.0935 276.72 93.7261 276.647 93.0404C276.598 92.3791 276.573 91.3505 277.063 90.2974C277.259 89.8566 277.553 89.4402 277.945 89.0484C278.214 90.5668 278.484 92.0362 278.729 93.4077C278.924 94.4853 279.12 95.5139 279.316 96.4691C278.116 96.4691 276.916 96.1752 275.863 95.6119V95.5874ZM285.047 92.7954C284.9 93.873 284.19 94.9016 283.137 95.5139C282.206 96.0527 281.129 96.3711 279.978 96.4446C279.782 95.4405 279.561 94.3873 279.341 93.2608C279.022 91.7913 278.729 90.2484 278.435 88.6075C278.9 88.2647 279.463 87.9708 280.1 87.8483C281.57 87.5544 283.308 88.1422 284.361 89.8076C284.9 90.6158 285.194 91.6689 285.047 92.771V92.7954Z" fill="white" style="fill:white;fill-opacity:1;"/>
<path d="M435.954 76.3866C435.268 74.7947 434.043 73.4723 432.5 72.7865C431.006 72.1008 429.317 72.0273 427.921 72.4191C427.088 72.6396 426.378 72.9824 425.765 73.4233C425.692 73.0559 425.643 72.6885 425.57 72.2967C425.447 71.5865 425.349 70.8517 425.251 70.117C425.912 69.4803 426.549 68.7945 427.112 68.0353C428.508 66.2965 429.537 64.1658 429.782 61.9126C430.468 55.1532 428.312 51.8959 426.549 52.0673C422.704 52.6551 423.218 59.1941 423.978 65.9781C423.463 66.6148 422.925 67.2271 422.337 67.8149L421.259 68.868C420.892 69.2109 420.524 69.6027 420.157 70.0435C418.663 71.6844 417.463 73.5702 416.728 75.7499C415.994 77.9051 416.018 80.4521 417.12 82.4848C418.173 84.5176 420.01 85.9135 421.92 86.6728C423.782 87.383 425.716 87.6524 427.578 87.5299C427.749 88.5096 427.921 89.4402 428.068 90.3219C428.655 92.673 427.823 94.7792 426.353 95.5139C425.251 96.0037 424.223 95.7343 423.537 95.2935C423.61 95.2935 423.684 95.318 423.757 95.318C424.859 95.3425 425.765 94.4853 425.79 93.4077C425.814 92.3056 424.957 91.3995 423.855 91.375C422.778 91.3505 421.847 92.2077 421.822 93.3097C421.822 93.4077 421.822 93.4812 421.822 93.5791C421.822 93.5791 421.822 93.5792 421.822 93.6036C421.871 94.0445 422.067 94.4363 422.337 94.7302C422.386 94.8037 422.435 94.8772 422.508 94.9506C422.827 95.3425 423.316 95.7588 424.002 96.0037C424.688 96.2486 425.57 96.3711 426.5 96.0527C427.431 95.7588 428.337 94.9261 428.753 93.8241C428.974 93.2853 429.121 92.673 429.096 92.0362C429.096 91.375 428.998 90.7872 428.9 90.1504C428.753 89.2688 428.606 88.3381 428.41 87.4075C430.051 87.1871 431.643 86.6483 433.039 85.8156C434.607 84.8115 435.807 83.293 436.272 81.5297C436.762 79.7909 436.566 77.9296 435.88 76.3622L435.954 76.3866ZM427.406 54.5654C428.166 54.8103 428.288 55.8634 428.264 56.5247C428.239 58.1166 427.847 59.7085 427.088 61.1044C426.353 62.4514 425.57 63.7249 424.737 64.9495C424.321 58.1655 425.863 54.0511 427.431 54.5409L427.406 54.5654ZM422.631 85.1543C421.088 84.3461 419.741 83.0971 419.104 81.5297C418.467 79.9868 418.614 78.2724 419.324 76.6805C420.059 75.1131 421.284 73.6682 422.606 72.3947C422.925 72.1008 423.267 71.7824 423.684 71.4395L424.247 70.9742C424.369 70.8517 424.516 70.7538 424.639 70.6313C424.712 71.2191 424.81 71.7824 424.884 72.3457C424.957 72.86 425.055 73.3498 425.129 73.8396C423.953 74.8682 423.243 76.1662 422.949 77.3173C422.484 79.2766 422.9 80.795 423.267 81.7011C423.463 82.1665 423.635 82.4848 423.757 82.7053C423.88 82.9257 423.953 83.0236 423.953 83.0236C423.953 83.0236 423.831 82.5093 423.708 81.5787C423.635 80.648 423.61 79.2521 424.296 77.8071C424.565 77.2193 424.982 76.6071 425.496 76.0928C425.863 78.1745 426.231 80.1827 426.574 82.093C426.843 83.5624 427.112 84.9829 427.357 86.3054C425.717 86.2809 424.051 85.8891 422.606 85.1298L422.631 85.1543ZM435.243 81.3093C435.023 82.8032 434.068 84.2237 432.623 85.0564C431.349 85.7911 429.855 86.2319 428.288 86.3299C428.019 84.9339 427.725 83.489 427.406 81.9705C426.99 79.9623 426.549 77.8071 426.157 75.5785C426.794 75.0886 427.578 74.7213 428.435 74.5254C430.443 74.109 432.868 74.9417 434.313 77.2438C435.047 78.3704 435.464 79.8154 435.268 81.3093H435.243Z" fill="white" style="fill:white;fill-opacity:1;"/>
<g opacity="0.4">
<path d="M122.231 86.8442H119.537V134.111C117.039 132.397 113.145 132.152 109.471 133.793C104.402 136.022 101.683 140.944 103.349 144.74C105.039 148.536 110.5 149.785 115.57 147.557C119.488 145.818 121.986 142.536 122.158 139.352H122.231V86.8687V86.8442Z" fill="white" style="fill:white;fill-opacity:1;"/>
<path d="M216.008 16.5803H215.249V29.9522C214.539 29.4624 213.437 29.3889 212.408 29.8543C210.988 30.491 210.204 31.887 210.669 32.9401C211.135 34.0177 212.702 34.3606 214.123 33.7238C215.225 33.234 215.935 32.3033 215.984 31.3972V16.5558L216.008 16.5803Z" fill="white" style="fill:white;fill-opacity:1;"/>
<path d="M325.387 66.7128H324.383V84.4196C323.453 83.7828 321.983 83.6848 320.612 84.2971C318.726 85.1298 317.697 86.9666 318.31 88.3871C318.946 89.8075 320.979 90.2729 322.889 89.4402C324.359 88.8034 325.289 87.5544 325.363 86.3788H325.387V66.7128Z" fill="white" style="fill:white;fill-opacity:1;"/>
<path d="M148.316 46.8018H147.091V68.3536C145.94 67.5699 144.177 67.472 142.487 68.2067C140.185 69.2353 138.936 71.464 139.695 73.2028C140.454 74.9416 142.952 75.5049 145.279 74.4763C147.067 73.6926 148.193 72.1742 148.291 70.7292H148.34V46.7773L148.316 46.8018Z" fill="white" style="fill:white;fill-opacity:1;"/>
<path d="M423.569 79.0317L412.818 81.4808V84.2727V93.4567C412.23 93.2118 411.471 93.2118 410.736 93.5547C409.536 94.0935 408.899 95.2445 409.291 96.1507C409.683 97.0569 410.981 97.3508 412.181 96.812C413.038 96.4446 413.602 95.7344 413.724 95.0486V94.9996C413.724 94.8527 413.724 94.7058 413.724 94.5588V84.0523L422.663 81.9216V91.2036C422.075 90.9587 421.316 90.9587 420.557 91.277C419.357 91.8158 418.72 92.9669 419.112 93.8731C419.504 94.7792 420.802 95.0731 422.002 94.5343C423.006 94.0935 423.594 93.2118 423.545 92.4281V81.7257V79.0317H423.569Z" fill="white" style="fill:white;fill-opacity:1;"/>
<path d="M231.804 66.9088L208.416 72.2477V78.3459V98.3549C207.167 97.8161 205.477 97.8406 203.885 98.5508C201.289 99.7019 199.868 102.224 200.75 104.184C201.607 106.143 204.424 106.78 207.044 105.629C208.905 104.796 210.13 103.278 210.375 101.784V101.686C210.424 101.367 210.424 101.024 210.375 100.73V77.8806L229.821 73.2274V93.4077C228.572 92.8444 226.882 92.8689 225.265 93.6037C222.669 94.7547 221.249 97.2773 222.106 99.2365C222.963 101.196 225.78 101.833 228.4 100.681C230.58 99.7263 231.878 97.8161 231.78 96.0772V72.7865V66.9332L231.804 66.9088Z" fill="white" style="fill:white;fill-opacity:1;"/>
<path d="M428.587 491.603L405.296 496.917V502.991V522.926C404.047 522.387 402.381 522.412 400.79 523.122C398.193 524.273 396.798 526.771 397.655 528.73C398.512 530.69 401.304 531.302 403.9 530.175C405.737 529.343 406.961 527.849 407.231 526.33V526.232C407.28 525.914 407.28 525.596 407.231 525.277V502.525L426.578 497.897V517.979C425.329 517.44 423.639 517.44 422.047 518.175C419.451 519.326 418.055 521.824 418.913 523.783C419.77 525.718 422.586 526.379 425.158 525.228C427.313 524.273 428.635 522.363 428.513 520.649V497.456V491.627L428.587 491.603Z" fill="white" style="fill:white;fill-opacity:1;"/>
<path d="M304.127 0L278.093 5.95125V12.7352V34.9973C276.697 34.4095 274.836 34.434 273.048 35.2177C270.158 36.5157 268.59 39.3076 269.546 41.4873C270.501 43.667 273.636 44.3772 276.55 43.1037C278.607 42.1975 279.979 40.5077 280.273 38.8178V38.7199C280.322 38.3525 280.322 37.9851 280.273 37.6423V12.2209L301.922 7.05333V29.5113C300.526 28.8991 298.641 28.9236 296.853 29.7073C293.963 30.9808 292.395 33.7972 293.351 35.9769C294.306 38.1566 297.441 38.8668 300.355 37.5933C302.78 36.5157 304.225 34.4095 304.102 32.4747V6.53903V0.0244913L304.127 0Z" fill="white" style="fill:white;fill-opacity:1;"/>
<path d="M24.7805 207.29L13.8331 204.424C13.8331 204.743 13.8331 208.245 13.8331 216.057C13.2453 215.812 12.4616 215.812 11.7269 216.155C10.5269 216.694 9.86559 217.87 10.2574 218.776C10.6493 219.682 11.9718 219.976 13.1718 219.437C14.225 218.972 14.8617 218.017 14.7393 217.184V207.339L23.8008 209.592V219.927C23.213 219.682 22.4539 219.682 21.7191 220.025C20.5191 220.564 19.8578 221.739 20.2497 222.621C20.6415 223.527 21.964 223.821 23.1641 223.282C24.2417 222.817 24.8784 221.837 24.707 220.98C24.707 207.241 24.707 209.298 24.756 207.314L24.7805 207.29Z" fill="white" style="fill:white;fill-opacity:1;"/>
<path d="M24.1467 284.46L6.07251 279.709C6.07251 280.223 6.07251 286.003 6.07251 298.934C5.11737 298.518 3.81939 298.542 2.59485 299.081C0.611101 299.963 -0.4665 301.897 0.19475 303.391C0.856 304.885 3.0112 305.375 4.99495 304.493C6.73379 303.71 7.78687 302.142 7.56645 300.746V284.46L22.5548 288.183V305.253C21.5997 304.836 20.3261 304.861 19.1016 305.4C17.1179 306.281 16.0403 308.216 16.7015 309.71C17.3628 311.204 19.5179 311.694 21.5017 310.812C23.265 310.028 24.3181 308.412 24.0487 307.016C24.0487 284.313 24.0487 287.717 24.1222 284.46H24.1467Z" fill="white" style="fill:white;fill-opacity:1;"/>
<path d="M22.3844 367.165L13.0534 364.716C13.0534 364.986 13.0534 367.974 13.0534 374.635C12.5636 374.415 11.9023 374.439 11.2656 374.709C10.237 375.174 9.67366 376.153 10.0165 376.937C10.3594 377.721 11.4615 377.966 12.4901 377.5C13.3963 377.109 13.9351 376.276 13.8126 375.566V367.165L21.5517 369.076V377.892C21.0619 377.672 20.4006 377.696 19.7639 377.966C18.7353 378.431 18.1719 379.411 18.5148 380.194C18.8577 380.978 19.9598 381.223 20.9884 380.758C21.8946 380.341 22.4333 379.509 22.3109 378.798C22.3109 367.067 22.3109 368.831 22.3599 367.141L22.3844 367.165Z" fill="white" style="fill:white;fill-opacity:1;"/>
<path d="M185.102 529.245L162.08 523.196C162.08 523.833 162.105 531.229 162.105 547.662C160.88 547.148 159.24 547.148 157.672 547.858C155.125 548.985 153.754 551.434 154.611 553.344C155.468 555.254 158.211 555.866 160.733 554.74C162.962 553.76 164.285 551.752 164.015 549.989V529.269L183.094 533.996V555.744C181.869 555.23 180.253 555.254 178.685 555.94C176.138 557.066 174.767 559.516 175.624 561.426C176.457 563.336 179.199 563.948 181.747 562.846C184 561.842 185.322 559.785 185.004 558.022C185.004 529.098 184.979 533.457 185.102 529.294V529.245Z" fill="white" style="fill:white;fill-opacity:1;"/>
<path d="M480.063 455.724L465.785 458.981V462.704V474.925C465.026 474.606 463.997 474.606 463.018 475.047C461.426 475.757 460.568 477.3 461.083 478.476C461.622 479.676 463.336 480.068 464.928 479.358C466.054 478.843 466.814 477.937 466.961 477.006V476.957C466.985 476.761 466.985 476.566 466.961 476.37V464.394L478.839 461.626V471.888C478.079 471.545 477.026 471.569 476.047 472.01C474.455 472.721 473.598 474.263 474.112 475.439C474.651 476.639 476.365 477.031 477.957 476.321C479.279 475.733 480.088 474.557 480.014 473.504V459.275V455.699L480.063 455.724ZM478.839 460.426L466.961 463.194V462.434L478.839 459.593V460.426Z" fill="white" style="fill:white;fill-opacity:1;"/>
<path d="M494.561 94.2404L483.418 96.7874V99.7018V109.253C482.83 109.008 482.022 109.008 481.263 109.351C480.014 109.914 479.353 111.114 479.769 112.045C480.185 112.976 481.532 113.294 482.757 112.731C483.639 112.339 484.226 111.604 484.349 110.894V110.845C484.349 110.698 484.349 110.527 484.349 110.38V101.049L493.631 98.8936V106.902C493.018 106.633 492.235 106.657 491.451 107C490.202 107.539 489.541 108.763 489.957 109.694C490.373 110.625 491.72 110.943 492.945 110.38C493.974 109.914 494.61 109.008 494.561 108.176V97.0568V94.2649V94.2404ZM493.631 97.914L484.349 100.069V99.4814L493.631 97.2772V97.9385V97.914Z" fill="white" style="fill:white;fill-opacity:1;"/>
<path d="M502.526 357.197L482.541 361.777V366.994V384.088C481.464 383.623 480.043 383.647 478.672 384.26C476.443 385.239 475.243 387.394 475.978 389.06C476.712 390.725 479.112 391.288 481.341 390.309C482.933 389.599 483.986 388.301 484.182 387.027V386.954C484.231 386.684 484.231 386.39 484.182 386.121V369.369L500.811 365.5V379.851C499.734 379.386 498.289 379.386 496.917 379.998C494.689 380.978 493.489 383.133 494.223 384.798C494.958 386.464 497.358 387.027 499.587 386.023C501.448 385.19 502.575 383.574 502.477 382.08V362.169V357.173L502.526 357.197ZM500.836 363.761L484.207 367.63V366.577L500.836 362.61V363.785V363.761Z" fill="white" style="fill:white;fill-opacity:1;"/>
<path d="M540.291 410.514L528.952 413.11V416.073V425.772C528.34 425.502 527.532 425.527 526.748 425.869C525.475 426.433 524.813 427.657 525.23 428.588C525.646 429.543 527.017 429.837 528.267 429.298C529.173 428.906 529.76 428.172 529.883 427.437V427.388C529.883 427.241 529.907 427.07 529.883 426.923V417.42L539.312 415.24V423.396C538.7 423.127 537.891 423.126 537.108 423.494C535.834 424.057 535.173 425.282 535.589 426.212C536.006 427.167 537.377 427.461 538.626 426.923C539.679 426.457 540.316 425.527 540.267 424.694V413.404V410.563L540.291 410.514ZM539.336 414.236L529.907 416.441V415.828L539.336 413.575V414.236Z" fill="white" style="fill:white;fill-opacity:1;"/>
<path d="M73.5712 240.254C72.6896 238.295 69.8731 237.658 67.2771 238.809C64.975 239.813 63.628 241.895 63.8973 243.707V270.059H65.2933V245.789C66.5913 246.622 68.5506 246.744 70.4119 245.911C73.0324 244.76 74.4284 242.238 73.5712 240.279V240.254Z" fill="white" style="fill:white;fill-opacity:1;"/>
<path d="M566.691 237.389C565.613 234.989 562.16 234.205 558.976 235.625C556.16 236.874 554.495 239.397 554.837 241.626V273.904H556.552V244.173C558.144 245.201 560.544 245.348 562.821 244.32C566.03 242.899 567.744 239.813 566.691 237.413V237.389Z" fill="white" style="fill:white;fill-opacity:1;"/>
<path d="M141.209 448.083C140.622 446.76 138.711 446.319 136.948 447.103C135.405 447.789 134.475 449.185 134.67 450.409V468.165H135.601V451.805C136.483 452.369 137.805 452.442 139.054 451.879C140.818 451.095 141.773 449.405 141.185 448.083H141.209Z" fill="white" style="fill:white;fill-opacity:1;"/>
<path d="M103.175 491.799C102.49 490.231 100.212 489.717 98.1302 490.648C96.2934 491.456 95.1913 493.121 95.4362 494.566V515.677H96.5628V496.232C97.5914 496.893 99.1588 496.991 100.677 496.33C102.759 495.399 103.91 493.391 103.2 491.799H103.175Z" fill="white" style="fill:white;fill-opacity:1;"/>
<path d="M69.3104 165.239C69.2369 165.043 69.0165 164.945 68.8206 165.019C68.6246 165.092 68.5267 165.313 68.6002 165.509C69.1634 167.002 67.7919 168.031 66.3225 168.937L66.0286 169.109C65.3674 169.525 64.9265 169.868 64.6082 170.186V158.455C65.2939 158.921 66.3715 158.97 67.3756 158.529C68.7716 157.892 69.5553 156.545 69.09 155.492C68.6246 154.439 67.1062 154.096 65.6858 154.708C64.4857 155.247 63.7755 156.3 63.8489 157.255V171.631C63.8489 171.827 64.0204 171.999 64.2163 171.999C64.4122 171.999 64.5837 171.827 64.5837 171.631C64.7061 171.117 64.951 170.652 66.396 169.745L66.6654 169.574C67.8654 168.839 70.0696 167.443 69.2369 165.239H69.3104Z" fill="white" style="fill:white;fill-opacity:1;"/>
<path d="M358.932 566.789C358.834 566.495 358.516 566.373 358.222 566.471C357.928 566.569 357.805 566.887 357.903 567.181C358.736 569.361 356.728 570.855 354.597 572.177L354.181 572.447C353.226 573.059 352.564 573.549 352.123 574.014V556.919C353.128 557.581 354.695 557.679 356.164 557.017C358.222 556.111 359.324 554.127 358.638 552.585C357.952 551.042 355.748 550.527 353.691 551.434C351.952 552.217 350.899 553.736 351.021 555.132V576.096C351.021 576.39 351.266 576.635 351.56 576.635C351.854 576.635 352.099 576.39 352.099 576.096V576.047C352.295 575.336 352.638 574.675 354.744 573.328L355.16 573.083C356.899 572.006 360.132 569.997 358.932 566.789Z" fill="white" style="fill:white;fill-opacity:1;"/>
<path d="M318.89 516.657C318.792 516.412 318.523 516.289 318.253 516.363C318.009 516.461 317.862 516.73 317.96 517C318.694 518.959 316.906 520.281 314.996 521.457L314.629 521.702C313.772 522.241 313.184 522.706 312.792 523.098V507.84C313.698 508.428 315.094 508.526 316.392 507.938C318.229 507.13 319.209 505.342 318.596 503.97C317.984 502.599 316 502.134 314.163 502.942C312.621 503.628 311.665 504.999 311.788 506.248V524.984C311.788 525.253 312.008 525.473 312.278 525.473C312.547 525.473 312.768 525.253 312.768 524.984C312.939 524.322 313.257 523.71 315.143 522.51L315.51 522.29C317.053 521.334 319.943 519.522 318.866 516.657H318.89Z" fill="white" style="fill:white;fill-opacity:1;"/>
<path d="M533.576 183.656C533.478 183.411 533.209 183.289 532.964 183.387C532.719 183.485 532.597 183.754 532.695 183.999C533.405 185.86 531.69 187.134 529.854 188.26L529.486 188.481C528.678 188.995 528.115 189.436 527.723 189.828V175.207C528.58 175.77 529.903 175.868 531.176 175.305C532.939 174.521 533.87 172.831 533.307 171.509C532.719 170.186 530.833 169.745 529.07 170.529C527.576 171.19 526.67 172.513 526.792 173.688V191.616C526.792 191.885 527.013 192.081 527.258 192.081C527.503 192.081 527.723 191.861 527.723 191.616C527.894 190.979 528.188 190.416 530.001 189.24L530.343 189.02C531.837 188.089 534.605 186.375 533.552 183.632L533.576 183.656Z" fill="white" style="fill:white;fill-opacity:1;"/>
<path d="M233.44 501.717C234.64 501.717 235.596 500.738 235.596 499.562C235.596 498.387 234.64 497.407 233.44 497.407C232.24 497.407 231.285 498.387 231.285 499.562C231.285 500.738 232.265 501.717 233.44 501.717Z" fill="white" style="fill:white;fill-opacity:1;"/>
<path d="M233.44 506.566C232.24 506.566 231.285 507.522 231.285 508.722C231.285 509.922 232.265 510.877 233.44 510.877C234.616 510.877 235.596 509.922 235.596 508.722C235.596 507.522 234.64 506.566 233.44 506.566Z" fill="white" style="fill:white;fill-opacity:1;"/>
<path d="M225.187 492.925C223.693 491.945 222.052 491.358 220.411 491.113C218.795 490.868 217.203 490.966 215.758 491.358C214.313 491.75 213.039 492.411 212.06 493.243C207.284 497.235 208.925 502.991 213.186 502.991C215.415 502.991 217.227 501.178 217.227 498.95C217.227 497.382 216.346 496.06 215.048 495.399C215.488 495.056 216.052 494.737 216.713 494.517C218.623 493.831 221.391 493.88 223.766 495.203C224.942 495.864 226.019 496.844 226.754 498.093C227.513 499.317 227.979 500.811 228.15 502.354C228.322 503.921 228.199 505.513 227.979 507.105C227.734 508.673 227.317 510.191 226.779 511.587C225.677 514.428 224.06 516.828 222.468 518.714C220.876 520.6 219.26 521.922 218.133 522.804C216.982 523.685 216.272 524.077 216.272 524.077C216.125 524.175 216.052 524.371 216.15 524.518C216.248 524.69 216.444 524.739 216.59 524.665C216.59 524.665 217.35 524.249 218.574 523.416C219.799 522.559 221.44 521.236 223.203 519.375C224.942 517.538 226.779 515.114 228.101 512.15C228.762 510.681 229.301 509.089 229.644 507.399C229.987 505.734 230.158 503.97 230.134 502.207C230.06 500.419 229.669 498.582 228.811 496.942C227.979 495.301 226.681 493.905 225.187 492.925Z" fill="white" style="fill:white;fill-opacity:1;"/>
<path d="M468.868 163.574C469.432 163.574 469.897 163.108 469.897 162.545C469.897 161.982 469.432 161.516 468.868 161.516C468.305 161.516 467.84 161.982 467.84 162.545C467.84 163.108 468.305 163.574 468.868 163.574Z" fill="white" style="fill:white;fill-opacity:1;"/>
<path d="M468.868 165.9C468.305 165.9 467.84 166.366 467.84 166.929C467.84 167.492 468.305 167.957 468.868 167.957C469.432 167.957 469.897 167.492 469.897 166.929C469.897 166.366 469.432 165.9 468.868 165.9Z" fill="white" style="fill:white;fill-opacity:1;"/>
<path d="M464.904 159.361C464.194 158.896 463.385 158.602 462.626 158.48C461.843 158.357 461.083 158.406 460.398 158.602C459.712 158.773 459.1 159.116 458.634 159.508C456.357 161.418 457.14 164.186 459.173 164.186C460.251 164.186 461.108 163.329 461.108 162.251C461.108 161.516 460.691 160.88 460.055 160.537C460.275 160.365 460.545 160.218 460.838 160.12C461.769 159.778 463.092 159.802 464.218 160.463C464.781 160.782 465.296 161.247 465.663 161.835C466.03 162.423 466.251 163.133 466.324 163.868C466.398 164.627 466.349 165.386 466.251 166.145C466.128 166.904 465.932 167.615 465.663 168.3C465.124 169.647 464.365 170.823 463.606 171.705C462.847 172.611 462.063 173.248 461.524 173.664C460.961 174.08 460.643 174.276 460.643 174.276C460.569 174.325 460.545 174.423 460.569 174.497C460.618 174.57 460.716 174.595 460.789 174.57C460.789 174.57 461.157 174.374 461.745 173.958C462.332 173.541 463.116 172.905 463.973 172.023C464.806 171.141 465.688 169.966 466.324 168.57C466.643 167.86 466.888 167.1 467.059 166.292C467.231 165.484 467.304 164.651 467.279 163.819C467.255 162.961 467.059 162.08 466.643 161.296C466.251 160.512 465.614 159.851 464.904 159.361Z" fill="white" style="fill:white;fill-opacity:1;"/>
<path d="M279.293 559.173C281.35 559.173 283.015 557.507 283.015 555.45C283.015 553.393 281.35 551.752 279.293 551.752C277.236 551.752 275.57 553.417 275.57 555.45C275.57 557.483 277.236 559.173 279.293 559.173Z" fill="white" style="fill:white;fill-opacity:1;"/>
<path d="M279.293 567.499C277.236 567.499 275.57 569.165 275.57 571.222C275.57 573.279 277.236 574.945 279.293 574.945C281.35 574.945 283.015 573.279 283.015 571.222C283.015 569.165 281.35 567.499 279.293 567.499Z" fill="white" style="fill:white;fill-opacity:1;"/>
<path d="M265.13 544.037C262.583 542.347 259.718 541.343 256.95 540.927C254.158 540.511 251.415 540.682 248.966 541.343C246.517 542.005 244.313 543.156 242.623 544.576C234.443 551.458 237.235 561.303 244.558 561.303C248.378 561.303 251.489 558.217 251.489 554.372C251.489 551.703 249.97 549.425 247.742 548.25C248.525 547.662 249.456 547.123 250.583 546.731C253.864 545.556 258.64 545.629 262.705 547.931C264.738 549.082 266.55 550.748 267.848 552.878C269.171 554.985 269.955 557.532 270.249 560.177C270.542 562.871 270.347 565.614 269.955 568.332C269.538 571.026 268.828 573.622 267.873 576.047C265.987 580.92 263.195 585.059 260.452 588.268C257.709 591.5 254.966 593.778 253.007 595.272C251.023 596.766 249.823 597.476 249.823 597.476C249.554 597.623 249.456 597.966 249.603 598.235C249.75 598.505 250.093 598.627 250.387 598.48C250.387 598.48 251.685 597.77 253.766 596.325C255.848 594.856 258.689 592.578 261.726 589.394C264.738 586.21 267.873 582.071 270.151 576.977C271.302 574.455 272.208 571.712 272.796 568.822C273.383 565.957 273.702 562.944 273.628 559.907C273.506 556.846 272.82 553.687 271.351 550.895C269.906 548.078 267.677 545.678 265.13 543.988V544.037Z" fill="white" style="fill:white;fill-opacity:1;"/>
<path d="M75.3804 426.776C76.8499 426.776 78.0499 425.576 78.0499 424.106C78.0499 422.637 76.8499 421.437 75.3804 421.437C73.911 421.437 72.7109 422.637 72.7109 424.106C72.7109 425.576 73.911 426.776 75.3804 426.776Z" fill="white" style="fill:white;fill-opacity:1;"/>
<path d="M75.3804 432.751C73.911 432.751 72.7109 433.927 72.7109 435.421C72.7109 436.915 73.911 438.09 75.3804 438.09C76.8499 438.09 78.0499 436.89 78.0499 435.421C78.0499 433.951 76.8499 432.751 75.3804 432.751Z" fill="white" style="fill:white;fill-opacity:1;"/>
<path d="M65.2201 415.951C63.3833 414.726 61.3505 414.016 59.3423 413.722C57.3341 413.428 55.3748 413.551 53.6115 414.016C51.8481 414.481 50.2807 415.314 49.0562 416.343C43.2029 421.265 45.1867 428.343 50.4522 428.343C53.1951 428.343 55.4238 426.115 55.4238 423.372C55.4238 421.461 54.3217 419.82 52.7543 418.988C53.3176 418.571 53.9789 418.18 54.7871 417.91C57.1382 417.053 60.5423 417.102 63.4812 418.767C64.9262 419.575 66.2487 420.776 67.1794 422.318C68.1345 423.837 68.6733 425.649 68.8937 427.559C69.0896 429.494 68.9672 431.454 68.6733 433.388C68.3794 435.323 67.8651 437.184 67.1794 438.923C65.8324 442.425 63.8241 445.389 61.8649 447.691C59.9056 450.017 57.9218 451.634 56.5259 452.711C55.1054 453.789 54.2483 454.279 54.2483 454.279C54.0523 454.377 53.9788 454.646 54.1013 454.842C54.1992 455.038 54.4442 455.112 54.6646 455.014C54.6646 455.014 55.5952 454.524 57.0891 453.471C58.5831 452.418 60.6158 450.777 62.7955 448.524C64.9507 446.246 67.2038 443.258 68.8202 439.633C69.6284 437.821 70.2897 435.862 70.7305 433.78C71.1469 431.723 71.3673 429.568 71.3183 427.388C71.2448 425.184 70.755 422.931 69.6774 420.923C68.6488 418.89 67.0569 417.175 65.2201 415.975V415.951Z" fill="white" style="fill:white;fill-opacity:1;"/>
<path d="M91.2037 357.785C89.9791 354.895 87.7015 352.471 84.885 351.197C82.1666 349.924 79.0807 349.826 76.5092 350.536C75.0153 350.928 73.6928 351.589 72.5662 352.373C72.4438 351.687 72.3213 351.026 72.2233 350.316C72.0029 348.993 71.807 347.671 71.6356 346.324C72.8601 345.148 74.0357 343.899 75.0643 342.527C77.6358 339.344 79.4971 335.45 79.9624 331.335C81.2115 318.967 77.2684 313.041 74.0601 313.335C67.0558 314.388 67.9864 326.364 69.3579 338.78C68.4028 339.956 67.4231 341.083 66.3455 342.136L64.3863 344.07C63.7251 344.683 63.0638 345.417 62.3536 346.201C59.6351 349.189 57.4064 352.667 56.1084 356.634C54.7614 360.553 54.8349 365.255 56.8432 368.953C58.7779 372.676 62.1332 375.198 65.6109 376.594C69.0396 377.892 72.5417 378.382 75.9459 378.161C76.2888 379.925 76.5827 381.664 76.8276 383.28C77.8807 387.566 76.3623 391.435 73.6928 392.782C71.6845 393.689 69.7988 393.199 68.5497 392.391C68.6967 392.391 68.8191 392.44 68.9661 392.44C70.9743 392.513 72.6397 390.921 72.6887 388.937C72.7377 386.929 71.1458 385.288 69.162 385.215C67.1783 385.166 65.5129 386.733 65.4639 388.742C65.4639 388.913 65.4639 389.06 65.4884 389.207C65.4884 389.207 65.4884 389.207 65.4884 389.256C65.5864 390.04 65.9047 390.774 66.4435 391.313C66.5415 391.46 66.6395 391.582 66.7619 391.729C67.3497 392.44 68.2558 393.199 69.5049 393.664C70.7784 394.129 72.3703 394.325 74.0846 393.762C75.799 393.223 77.4399 391.705 78.1746 389.697C78.5664 388.717 78.8358 387.59 78.8114 386.439C78.7869 385.215 78.6154 384.186 78.4685 383.011C78.2236 381.394 77.9052 379.704 77.5868 377.99C80.5992 377.574 83.4891 376.594 86.0361 375.076C88.877 373.263 91.1057 370.447 91.9384 367.239C92.8446 364.055 92.4772 360.675 91.2281 357.785H91.2037ZM75.6031 317.89C76.999 318.331 77.195 320.265 77.1705 321.49C77.1215 324.404 76.4113 327.319 75.0153 329.89C73.6683 332.364 72.2723 334.666 70.7049 336.919C69.9212 324.502 72.7866 317.008 75.6031 317.89ZM66.8354 373.827C63.9945 372.333 61.5454 370.055 60.3943 367.214C59.2432 364.398 59.4882 361.238 60.7862 358.349C62.1087 355.483 64.3618 352.838 66.7864 350.536C67.3742 349.997 67.9864 349.409 68.7457 348.797L69.7498 347.94C69.9947 347.744 70.2396 347.524 70.4845 347.328C70.6314 348.381 70.8029 349.434 70.9498 350.487C71.0968 351.418 71.2437 352.324 71.3907 353.23C69.26 355.091 67.9375 357.467 67.3987 359.573C66.517 363.149 67.3007 365.916 67.9865 367.581C68.3293 368.414 68.6477 369.002 68.8926 369.418C69.1375 369.81 69.2599 370.006 69.2599 370.006C69.2599 370.006 69.0151 369.075 68.8191 367.361C68.6722 365.671 68.6477 363.124 69.8722 360.455C70.362 359.377 71.0968 358.275 72.0764 357.32C72.7377 361.14 73.3989 364.814 74.0356 368.267C74.5254 370.961 75.0153 373.533 75.4806 375.982C72.4683 375.933 69.4559 375.223 66.7864 373.827H66.8354ZM89.9301 366.798C89.5383 369.516 87.775 372.112 85.13 373.631C82.8278 374.978 80.0604 375.786 77.195 375.957C76.7051 373.41 76.1418 370.765 75.5786 367.973C74.7949 364.3 74.0111 360.381 73.2764 356.291C74.452 355.41 75.848 354.699 77.4644 354.381C81.138 353.646 85.5463 355.14 88.2158 359.328C89.5628 361.385 90.322 364.03 89.9301 366.773V366.798Z" fill="white" style="fill:white;fill-opacity:1;"/>
<path d="M558.563 336.454C558.122 335.376 557.29 334.495 556.236 334.029C555.232 333.564 554.106 333.515 553.151 333.784C552.587 333.931 552.122 334.176 551.706 334.446C551.657 334.201 551.608 333.956 551.583 333.686C551.51 333.197 551.436 332.707 551.363 332.217C551.804 331.801 552.244 331.335 552.612 330.821C553.567 329.645 554.253 328.225 554.4 326.707C554.865 322.151 553.395 319.972 552.22 320.094C549.648 320.486 549.991 324.894 550.481 329.449C550.138 329.866 549.771 330.307 549.379 330.674L548.669 331.384C548.424 331.605 548.179 331.874 547.934 332.168C546.93 333.27 546.122 334.544 545.632 335.988C545.142 337.433 545.167 339.148 545.901 340.519C546.612 341.891 547.836 342.821 549.134 343.336C550.383 343.826 551.681 343.997 552.93 343.899C553.053 344.56 553.175 345.173 553.249 345.785C553.64 347.377 553.077 348.797 552.098 349.287C551.363 349.63 550.677 349.434 550.212 349.14C550.261 349.14 550.31 349.14 550.359 349.14C551.093 349.14 551.706 348.577 551.73 347.842C551.73 347.107 551.167 346.495 550.432 346.471C549.697 346.471 549.085 347.034 549.061 347.769C549.061 347.818 549.061 347.891 549.061 347.94C549.085 348.234 549.208 348.503 549.404 348.699C549.428 348.748 549.477 348.797 549.526 348.846C549.746 349.116 550.065 349.385 550.53 349.556C550.995 349.728 551.583 349.801 552.22 349.605C552.857 349.409 553.444 348.846 553.738 348.111C553.885 347.744 553.983 347.328 553.983 346.911C553.983 346.471 553.91 346.079 553.861 345.662C553.763 345.075 553.665 344.438 553.542 343.801C554.645 343.654 555.698 343.287 556.653 342.723C557.706 342.062 558.514 341.034 558.808 339.858C559.151 338.682 559.004 337.433 558.539 336.38L558.563 336.454ZM552.808 321.784C553.322 321.955 553.396 322.666 553.396 323.106C553.396 324.184 553.126 325.262 552.612 326.192C552.122 327.098 551.608 327.956 551.02 328.788C550.726 324.233 551.779 321.465 552.832 321.784H552.808ZM549.599 342.356C548.546 341.817 547.64 340.96 547.224 339.932C546.808 338.903 546.881 337.727 547.371 336.674C547.861 335.621 548.693 334.642 549.575 333.809C549.795 333.613 550.016 333.392 550.285 333.172L550.653 332.854C550.653 332.854 550.824 332.707 550.922 332.633C550.971 333.025 551.044 333.417 551.093 333.784C551.142 334.127 551.191 334.446 551.265 334.788C550.481 335.474 549.991 336.356 549.795 337.115C549.477 338.438 549.771 339.442 550.016 340.054C550.138 340.372 550.261 340.568 550.359 340.715C550.457 340.862 550.481 340.936 550.481 340.936C550.481 340.936 550.383 340.593 550.334 339.956C550.285 339.344 550.261 338.389 550.726 337.409C550.897 337.017 551.191 336.601 551.534 336.258C551.779 337.654 552.024 339.001 552.269 340.274C552.44 341.254 552.636 342.209 552.808 343.115C551.706 343.115 550.579 342.846 549.624 342.307L549.599 342.356ZM558.073 339.76C557.926 340.764 557.265 341.719 556.31 342.283C555.453 342.772 554.449 343.066 553.396 343.14C553.224 342.209 553.004 341.23 552.808 340.201C552.514 338.854 552.244 337.409 551.951 335.915C552.391 335.597 552.906 335.327 553.494 335.205C554.84 334.935 556.457 335.474 557.436 337.017C557.926 337.776 558.22 338.756 558.073 339.76Z" fill="white" style="fill:white;fill-opacity:1;"/>
<path d="M386.585 34.3606C385.679 32.2054 383.989 30.4176 381.907 29.4624C379.875 28.5318 377.597 28.4338 375.687 28.9726C374.56 29.2665 373.605 29.7563 372.772 30.3196C372.674 29.8053 372.601 29.3155 372.503 28.8012C372.331 27.8216 372.209 26.8419 372.062 25.8378C372.968 24.9806 373.85 24.05 374.609 23.0214C376.519 20.6703 377.915 17.7804 378.234 14.6945C379.164 5.51049 376.226 1.10216 373.85 1.34707C368.658 2.13077 369.344 11.0209 370.372 20.2294C369.662 21.0866 368.927 21.9438 368.144 22.7275L366.699 24.1479C366.209 24.6133 365.719 25.1521 365.205 25.7398C363.196 27.9685 361.531 30.54 360.552 33.4789C359.547 36.3933 359.596 39.871 361.09 42.614C362.535 45.3814 365.009 47.2672 367.605 48.2958C370.152 49.251 372.748 49.6183 375.27 49.4469C375.515 50.7694 375.76 52.0429 375.932 53.243C376.715 56.4267 375.589 59.2922 373.605 60.2963C372.111 60.982 370.715 60.6147 369.784 60.0024C369.882 60.0024 369.98 60.0514 370.103 60.0514C371.597 60.1004 372.821 58.9248 372.87 57.4554C372.919 55.9614 371.744 54.7369 370.25 54.6879C368.78 54.6634 367.531 55.8145 367.507 57.3084C367.507 57.4309 367.507 57.5533 367.531 57.6513C367.531 57.6513 367.531 57.6513 367.531 57.6758C367.605 58.2635 367.85 58.8023 368.242 59.2187C368.315 59.3167 368.389 59.4146 368.486 59.5371C368.927 60.0514 369.589 60.6147 370.519 60.982C371.45 61.3249 372.65 61.4718 373.923 61.0555C375.197 60.6636 376.421 59.5371 376.96 58.0431C377.254 57.3084 377.45 56.4757 377.426 55.643C377.401 54.7369 377.279 53.9532 377.156 53.096C376.96 51.896 376.74 50.6469 376.495 49.3734C378.724 49.055 380.879 48.3203 382.765 47.2182C384.871 45.8712 386.536 43.7895 387.148 41.4139C387.834 39.0628 387.54 36.5403 386.61 34.4096L386.585 34.3606ZM375.001 4.75128C376.054 5.09415 376.177 6.51462 376.177 7.42077C376.128 9.57596 375.613 11.7556 374.56 13.6414C373.556 15.4782 372.503 17.1926 371.352 18.858C370.789 9.64943 372.895 4.06554 375.001 4.72679V4.75128ZM368.486 46.2876C366.38 45.1855 364.543 43.4711 363.711 41.3894C362.854 39.3077 363.025 36.9566 364.005 34.8014C364.984 32.6707 366.65 30.7115 368.462 28.9971C368.878 28.5808 369.368 28.1644 369.907 27.7236L370.666 27.0868C370.838 26.9399 371.033 26.7929 371.205 26.6215C371.327 27.4052 371.425 28.1889 371.548 28.9481C371.646 29.6339 371.768 30.2951 371.866 30.9809C370.274 32.3768 369.295 34.1402 368.903 35.7076C368.266 38.3526 368.829 40.4098 369.319 41.6343C369.564 42.2466 369.809 42.6874 370.005 42.9813C370.176 43.2752 370.274 43.4222 370.274 43.4222C370.274 43.4222 370.103 42.7364 369.956 41.4629C369.858 40.2139 369.833 38.3036 370.74 36.3443C371.107 35.5361 371.646 34.7279 372.381 34.0177C372.87 36.8586 373.36 39.5771 373.85 42.1486C374.217 44.1569 374.585 46.0672 374.928 47.8795C372.699 47.855 370.446 47.3162 368.486 46.2631V46.2876ZM385.63 41.0711C385.336 43.1038 384.014 45.0141 382.079 46.1406C380.364 47.1448 378.307 47.7325 376.201 47.8795C375.834 45.9937 375.417 44.0099 375.001 41.9527C374.438 39.2342 373.85 36.3198 373.287 33.283C374.168 32.6217 375.197 32.1074 376.397 31.8625C379.115 31.2992 382.397 32.4258 384.381 35.5361C385.385 37.0546 385.948 39.0383 385.655 41.0711H385.63Z" fill="white" style="fill:white;fill-opacity:1;"/>
<path d="M516.703 269.962C515.626 267.415 513.642 265.284 511.144 264.157C508.744 263.055 506.05 262.957 503.797 263.569C502.474 263.912 501.323 264.5 500.319 265.186C500.221 264.574 500.123 263.986 500.001 263.374C499.805 262.222 499.633 261.047 499.486 259.847C500.564 258.818 501.593 257.716 502.499 256.516C504.752 253.724 506.417 250.295 506.785 246.671C507.887 235.797 504.409 230.58 501.593 230.85C495.421 231.78 496.254 242.311 497.454 253.21C496.621 254.238 495.764 255.243 494.809 256.173L493.094 257.863C492.531 258.402 491.919 259.063 491.307 259.749C488.931 262.369 486.972 265.431 485.821 268.908C484.621 272.362 484.694 276.476 486.457 279.733C488.172 283.015 491.111 285.244 494.172 286.444C497.184 287.595 500.27 288.011 503.258 287.815C503.552 289.383 503.821 290.877 504.042 292.322C504.972 296.093 503.65 299.497 501.299 300.673C499.536 301.481 497.87 301.04 496.768 300.33C496.89 300.33 497.013 300.379 497.135 300.379C498.899 300.428 500.368 299.057 500.417 297.293C500.466 295.53 499.07 294.085 497.307 294.036C495.568 293.987 494.099 295.383 494.05 297.122C494.05 297.269 494.05 297.391 494.074 297.538C494.074 297.538 494.074 297.538 494.074 297.587C494.148 298.273 494.441 298.91 494.907 299.399C495.005 299.522 495.078 299.644 495.176 299.767C495.69 300.379 496.499 301.04 497.601 301.481C498.727 301.873 500.123 302.044 501.642 301.579C503.16 301.114 504.581 299.767 505.242 298.003C505.585 297.122 505.83 296.142 505.805 295.138C505.781 294.06 505.634 293.154 505.487 292.126C505.266 290.705 504.997 289.236 504.728 287.693C507.373 287.325 509.895 286.444 512.148 285.146C514.646 283.554 516.606 281.08 517.34 278.264C518.148 275.472 517.806 272.484 516.703 269.962ZM502.989 234.891C504.213 235.283 504.385 236.973 504.385 238.05C504.336 240.597 503.723 243.169 502.474 245.422C501.274 247.577 500.05 249.634 498.678 251.594C497.993 240.695 500.491 234.083 502.989 234.866V234.891ZM495.274 284.068C492.776 282.77 490.621 280.737 489.617 278.264C488.613 275.79 488.809 273.023 489.96 270.476C491.111 267.953 493.094 265.651 495.25 263.594C495.764 263.104 496.303 262.614 496.964 262.076L497.846 261.341C498.066 261.169 498.286 260.973 498.482 260.802C498.629 261.733 498.752 262.663 498.899 263.569C499.021 264.378 499.168 265.186 499.291 265.97C497.405 267.61 496.254 269.692 495.788 271.553C495.029 274.688 495.715 277.137 496.303 278.582C496.597 279.317 496.89 279.831 497.111 280.199C497.331 280.542 497.429 280.713 497.429 280.713C497.429 280.713 497.209 279.905 497.062 278.386C496.939 276.917 496.915 274.664 497.993 272.313C498.409 271.358 499.07 270.402 499.927 269.545C500.515 272.9 501.103 276.133 501.666 279.17C502.083 281.546 502.523 283.799 502.94 285.954C500.295 285.905 497.625 285.293 495.299 284.044L495.274 284.068ZM515.577 277.872C515.234 280.272 513.667 282.55 511.365 283.872C509.332 285.072 506.907 285.758 504.385 285.93C503.944 283.701 503.479 281.35 502.964 278.925C502.278 275.692 501.593 272.239 500.931 268.664C501.96 267.88 503.209 267.268 504.605 266.998C507.838 266.337 511.707 267.659 514.059 271.358C515.234 273.17 515.895 275.496 515.577 277.897V277.872Z" fill="white" style="fill:white;fill-opacity:1;"/>
</g>
<path d="M158.728 184.489H158.262V192.791C157.821 192.497 157.136 192.448 156.499 192.742C155.617 193.134 155.127 193.991 155.421 194.652C155.715 195.314 156.67 195.534 157.577 195.142C158.262 194.848 158.703 194.26 158.728 193.697V184.489Z" fill="white" style="fill:white;fill-opacity:1;"/>
<path d="M344.293 154.585H343.925V160.806C343.607 160.586 343.093 160.537 342.603 160.757C341.941 161.051 341.574 161.688 341.795 162.202C342.015 162.692 342.75 162.863 343.411 162.569C343.925 162.349 344.268 161.908 344.293 161.492V154.585Z" fill="white" style="fill:white;fill-opacity:1;"/>
<path d="M476.732 317.204H475.557V337.629C474.479 336.895 472.789 336.772 471.197 337.482C469.018 338.462 467.818 340.568 468.552 342.209C469.287 343.85 471.638 344.389 473.842 343.434C475.532 342.674 476.61 341.254 476.683 339.882H476.708V317.204H476.732Z" fill="white" style="fill:white;fill-opacity:1;"/>
<path d="M363.486 119.686L357.682 121.009V122.527V127.499C357.363 127.376 356.947 127.376 356.555 127.548C355.918 127.842 355.551 128.454 355.771 128.944C355.992 129.433 356.677 129.58 357.339 129.311C357.804 129.115 358.098 128.723 358.171 128.356C358.171 128.356 358.171 128.184 358.171 128.086V122.405L362.996 121.254V126.274C362.678 126.127 362.261 126.152 361.869 126.323C361.233 126.617 360.865 127.229 361.086 127.719C361.306 128.209 361.992 128.356 362.653 128.086C363.192 127.842 363.51 127.376 363.486 126.935V121.131V119.686Z" fill="white" style="fill:white;fill-opacity:1;"/>
<path d="M179.638 388.105L164.625 391.533V395.452V408.285C163.817 407.942 162.739 407.967 161.711 408.408C160.045 409.142 159.139 410.759 159.702 412.008C160.266 413.257 162.054 413.673 163.743 412.938C164.943 412.4 165.727 411.444 165.874 410.465V410.416C165.899 410.195 165.899 409.999 165.874 409.804V395.158L178.34 392.17V405.126C177.532 404.783 176.454 404.783 175.401 405.248C173.736 405.983 172.83 407.599 173.368 408.848C173.932 410.097 175.719 410.514 177.409 409.779C178.805 409.167 179.638 407.942 179.564 406.816V391.876V388.129L179.638 388.105Z" fill="white" style="fill:white;fill-opacity:1;"/>
<path d="M211.621 148.144L194.086 152.161V156.716V171.729C193.155 171.337 191.881 171.337 190.681 171.876C188.722 172.733 187.669 174.619 188.33 176.088C188.992 177.558 191.098 178.023 193.033 177.166C194.429 176.554 195.335 175.403 195.531 174.276V174.202C195.555 173.958 195.58 173.713 195.531 173.468V156.349L210.103 152.871V168.006C209.147 167.59 207.898 167.614 206.674 168.153C204.715 169.01 203.662 170.896 204.323 172.366C204.984 173.835 207.09 174.325 209.025 173.443C210.641 172.733 211.646 171.288 211.548 169.99V152.528V148.144H211.621Z" fill="white" style="fill:white;fill-opacity:1;"/>
<path d="M261.273 443.503L249.468 440.392C249.468 440.735 249.468 444.507 249.468 452.956C248.831 452.687 247.999 452.687 247.19 453.054C245.892 453.642 245.182 454.891 245.623 455.87C246.064 456.85 247.46 457.168 248.758 456.581C249.909 456.066 250.595 455.038 250.448 454.132V443.503L260.244 445.927V457.071C259.607 456.801 258.775 456.826 257.991 457.168C256.693 457.756 255.983 459.005 256.423 459.985C256.864 460.965 258.26 461.283 259.558 460.72C260.709 460.205 261.395 459.152 261.224 458.246C261.224 443.405 261.224 445.633 261.273 443.503Z" fill="white" style="fill:white;fill-opacity:1;"/>
<path d="M131.59 238.54L120.716 235.674C120.716 235.993 120.716 239.47 120.716 247.234C120.129 246.989 119.369 246.989 118.635 247.332C117.435 247.871 116.798 249.022 117.19 249.928C117.581 250.834 118.879 251.128 120.08 250.589C121.133 250.124 121.769 249.169 121.622 248.336V238.54L130.635 240.768V251.054C130.047 250.809 129.288 250.834 128.553 251.152C127.353 251.691 126.692 252.842 127.108 253.748C127.5 254.655 128.798 254.948 129.998 254.41C131.076 253.944 131.688 252.965 131.541 252.132C131.541 238.466 131.541 240.523 131.59 238.54Z" fill="white" style="fill:white;fill-opacity:1;"/>
<path d="M249.269 132.764L241.848 130.805C241.848 131.025 241.848 133.401 241.848 138.691C241.456 138.519 240.917 138.519 240.428 138.74C239.619 139.107 239.154 139.891 239.448 140.503C239.717 141.115 240.599 141.311 241.432 140.969C242.142 140.65 242.583 140.013 242.485 139.426V132.74L248.632 134.258V141.262C248.24 141.091 247.701 141.115 247.212 141.336C246.403 141.703 245.938 142.487 246.232 143.099C246.501 143.711 247.383 143.907 248.216 143.565C248.95 143.246 249.367 142.585 249.269 141.997C249.269 132.666 249.269 134.062 249.293 132.715L249.269 132.764Z" fill="white" style="fill:white;fill-opacity:1;"/>
<path d="M440.836 311.816L433.856 313.408V315.22V321.196C433.488 321.025 432.974 321.049 432.509 321.245C431.725 321.588 431.309 322.347 431.578 322.935C431.847 323.523 432.68 323.719 433.464 323.376C434.027 323.131 434.394 322.665 434.468 322.225C434.468 322.102 434.468 322.004 434.468 321.906V316.053L440.272 314.706V319.727C439.905 319.555 439.391 319.58 438.901 319.776C438.117 320.118 437.701 320.878 437.97 321.465C438.24 322.053 439.072 322.249 439.856 321.906C440.493 321.612 440.909 321.049 440.86 320.535V313.579V311.841L440.836 311.816ZM440.248 314.118L434.443 315.465V315.098L440.248 313.702V314.118Z" fill="white" style="fill:white;fill-opacity:1;"/>
<path d="M304.569 457.022L298.079 458.516V460.206V465.765C297.736 465.618 297.271 465.618 296.83 465.814C296.12 466.132 295.728 466.843 295.948 467.381C296.193 467.92 296.977 468.092 297.687 467.773C298.201 467.553 298.544 467.112 298.618 466.696C298.618 466.696 298.618 466.5 298.618 466.402V460.965L304.006 459.716V464.369C303.663 464.222 303.197 464.222 302.732 464.418C302.022 464.736 301.63 465.447 301.85 465.985C302.095 466.524 302.879 466.696 303.589 466.377C304.201 466.108 304.544 465.569 304.52 465.104V458.638V457.022H304.569ZM304.03 459.177L298.642 460.426V460.083L304.03 458.785V459.152V459.177Z" fill="white" style="fill:white;fill-opacity:1;"/>
<path d="M136.293 346.226L122.407 349.409V353.034V364.912C121.672 364.594 120.668 364.618 119.713 365.034C118.17 365.72 117.337 367.214 117.851 368.365C118.366 369.516 120.031 369.908 121.574 369.222C122.676 368.733 123.411 367.826 123.558 366.945V366.896C123.582 366.7 123.582 366.504 123.558 366.308V354.675L135.093 351.981V361.949C134.334 361.63 133.329 361.63 132.374 362.047C130.831 362.732 129.999 364.226 130.513 365.377C131.027 366.528 132.693 366.92 134.236 366.235C135.534 365.671 136.317 364.52 136.244 363.492V349.654V346.177L136.293 346.226ZM135.117 350.781L123.582 353.475V352.74L135.117 349.973V350.781Z" fill="white" style="fill:white;fill-opacity:1;"/>
<path d="M164.211 342.429C163.99 341.94 163.305 341.793 162.643 342.062C162.08 342.307 161.737 342.821 161.811 343.287V349.826H162.154V343.801C162.472 344.021 162.962 344.046 163.427 343.825C164.064 343.531 164.431 342.919 164.211 342.429Z" fill="white" style="fill:white;fill-opacity:1;"/>
<path d="M210.769 423.641C210.205 422.392 208.418 421.975 206.728 422.71C205.258 423.347 204.401 424.669 204.572 425.845V442.694H205.454V427.167C206.287 427.706 207.536 427.78 208.736 427.241C210.401 426.506 211.307 424.89 210.769 423.641Z" fill="white" style="fill:white;fill-opacity:1;"/>
<path d="M166.609 233.642C166.389 233.152 165.679 232.98 165.042 233.274C164.478 233.519 164.136 234.033 164.209 234.499V241.087H164.552V235.013C164.87 235.233 165.36 235.258 165.825 235.038C166.487 234.744 166.83 234.107 166.609 233.617V233.642Z" fill="white" style="fill:white;fill-opacity:1;"/>
<path d="M462.095 267.365C462.046 267.243 461.899 267.169 461.777 267.218C461.654 267.267 461.581 267.414 461.63 267.537C462.021 268.541 461.066 269.227 460.087 269.863L459.891 269.986C459.45 270.28 459.156 270.5 458.936 270.721V262.786C459.401 263.104 460.136 263.128 460.821 262.835C461.777 262.418 462.291 261.488 461.972 260.777C461.654 260.067 460.626 259.822 459.67 260.239C458.862 260.606 458.372 261.316 458.421 261.953V271.7C458.421 271.847 458.544 271.945 458.666 271.945C458.789 271.945 458.911 271.823 458.911 271.7C459.009 271.357 459.156 271.039 460.136 270.427L460.332 270.304C461.14 269.814 462.634 268.859 462.07 267.365H462.095Z" fill="white" style="fill:white;fill-opacity:1;"/>
<path d="M361.706 462.703C361.706 462.703 361.559 462.556 361.461 462.581C361.363 462.63 361.314 462.728 361.338 462.826C361.632 463.61 360.922 464.148 360.138 464.614L359.991 464.712C359.648 464.932 359.404 465.104 359.257 465.275V459.128C359.624 459.373 360.187 459.397 360.702 459.177C361.436 458.858 361.828 458.124 361.583 457.585C361.338 457.022 360.53 456.85 359.795 457.169C359.159 457.438 358.791 458.001 358.84 458.491V466.034C358.84 466.034 358.938 466.23 359.036 466.23C359.134 466.23 359.232 466.132 359.232 466.034C359.306 465.765 359.428 465.52 360.187 465.03L360.334 464.932C360.971 464.54 362.122 463.83 361.681 462.679L361.706 462.703Z" fill="white" style="fill:white;fill-opacity:1;"/>
<path d="M441.909 216.008C441.836 215.837 441.64 215.739 441.469 215.812C441.297 215.886 441.199 216.082 441.273 216.253C441.787 217.6 440.538 218.482 439.24 219.314L438.995 219.486C438.407 219.853 438.015 220.172 437.746 220.441V209.983C438.358 210.4 439.313 210.449 440.22 210.057C441.469 209.494 442.154 208.294 441.738 207.338C441.322 206.408 439.975 206.089 438.701 206.653C437.648 207.118 436.987 208.073 437.06 208.906V221.739C437.06 221.935 437.207 222.082 437.403 222.082C437.599 222.082 437.746 221.935 437.746 221.739C437.868 221.274 438.089 220.882 439.362 220.049L439.607 219.902C440.66 219.241 442.644 218.016 441.909 216.057V216.008Z" fill="white" style="fill:white;fill-opacity:1;"/>
<path d="M410.466 166.39C411.079 166.39 411.593 165.876 411.593 165.263C411.593 164.651 411.103 164.137 410.466 164.137C409.83 164.137 409.34 164.627 409.34 165.263C409.34 165.9 409.854 166.39 410.466 166.39Z" fill="white" style="fill:white;fill-opacity:1;"/>
<path d="M410.466 168.888C409.854 168.888 409.34 169.378 409.34 170.015C409.34 170.651 409.854 171.141 410.466 171.141C411.079 171.141 411.593 170.651 411.593 170.015C411.593 169.378 411.103 168.888 410.466 168.888Z" fill="white" style="fill:white;fill-opacity:1;"/>
<path d="M406.203 161.835C405.444 161.32 404.562 161.026 403.73 160.904C402.897 160.782 402.064 160.831 401.329 161.026C400.595 161.222 399.934 161.565 399.419 162.006C396.946 164.088 397.803 167.051 400.007 167.051C401.158 167.051 402.089 166.121 402.089 164.969C402.089 164.161 401.623 163.476 400.962 163.133C401.207 162.961 401.476 162.79 401.819 162.667C402.823 162.3 404.244 162.325 405.468 163.035C406.081 163.378 406.62 163.892 407.011 164.529C407.403 165.165 407.648 165.925 407.722 166.733C407.819 167.541 407.746 168.374 407.624 169.182C407.501 169.99 407.281 170.774 406.987 171.509C406.424 172.978 405.566 174.227 404.758 175.207C403.925 176.186 403.093 176.872 402.505 177.313C401.917 177.754 401.55 177.974 401.55 177.974C401.476 178.023 401.427 178.121 401.476 178.195C401.525 178.268 401.623 178.317 401.721 178.268C401.721 178.268 402.113 178.048 402.75 177.607C403.387 177.166 404.244 176.48 405.15 175.525C406.056 174.57 407.011 173.321 407.697 171.778C408.04 171.019 408.309 170.186 408.505 169.329C408.677 168.472 408.775 167.566 408.75 166.635C408.726 165.704 408.505 164.749 408.064 163.916C407.624 163.059 406.962 162.349 406.179 161.835H406.203Z" fill="white" style="fill:white;fill-opacity:1;"/>
<path d="M343.338 426.629C343.779 426.629 344.122 426.286 344.122 425.845C344.122 425.404 343.779 425.061 343.338 425.061C342.898 425.061 342.555 425.404 342.555 425.845C342.555 426.286 342.898 426.629 343.338 426.629Z" fill="white" style="fill:white;fill-opacity:1;"/>
<path d="M343.338 428.392C342.898 428.392 342.555 428.735 342.555 429.176C342.555 429.616 342.898 429.959 343.338 429.959C343.779 429.959 344.122 429.616 344.122 429.176C344.122 428.735 343.779 428.392 343.338 428.392Z" fill="white" style="fill:white;fill-opacity:1;"/>
<path d="M340.324 423.42C339.785 423.053 339.173 422.857 338.585 422.759C337.997 422.661 337.409 422.71 336.895 422.857C336.381 423.004 335.915 423.249 335.548 423.543C333.809 424.988 334.397 427.094 335.964 427.094C336.773 427.094 337.434 426.433 337.434 425.624C337.434 425.061 337.115 424.571 336.65 424.326C336.822 424.204 337.017 424.081 337.262 424.008C337.948 423.763 338.977 423.763 339.834 424.253C340.275 424.498 340.642 424.841 340.936 425.306C341.205 425.747 341.377 426.286 341.45 426.849C341.499 427.412 341.45 428 341.377 428.563C341.279 429.127 341.132 429.69 340.936 430.204C340.544 431.233 339.956 432.114 339.369 432.8C338.781 433.486 338.217 433.976 337.801 434.294C337.385 434.612 337.115 434.759 337.115 434.759C337.066 434.784 337.042 434.857 337.066 434.931C337.091 434.98 337.164 435.004 337.238 434.98C337.238 434.98 337.507 434.833 337.948 434.515C338.389 434.196 339.001 433.731 339.638 433.045C340.275 432.384 340.936 431.502 341.426 430.425C341.671 429.886 341.867 429.298 341.989 428.686C342.111 428.073 342.185 427.437 342.16 426.8C342.136 426.163 341.989 425.477 341.671 424.89C341.377 424.302 340.887 423.788 340.348 423.42H340.324Z" fill="white" style="fill:white;fill-opacity:1;"/>
<path d="M136.467 295.334C136.932 295.334 137.324 294.942 137.324 294.477C137.324 294.011 136.932 293.619 136.467 293.619C136.001 293.619 135.609 294.011 135.609 294.477C135.609 294.942 136.001 295.334 136.467 295.334Z" fill="white" style="fill:white;fill-opacity:1;"/>
<path d="M136.467 297.244C136.001 297.244 135.609 297.636 135.609 298.101C135.609 298.566 136.001 298.958 136.467 298.958C136.932 298.958 137.324 298.566 137.324 298.101C137.324 297.636 136.932 297.244 136.467 297.244Z" fill="white" style="fill:white;fill-opacity:1;"/>
<path d="M133.206 291.856C132.618 291.464 131.957 291.244 131.32 291.146C130.683 291.048 130.046 291.097 129.483 291.244C128.92 291.391 128.405 291.66 128.014 291.978C126.128 293.57 126.765 295.824 128.454 295.824C129.336 295.824 130.046 295.113 130.046 294.232C130.046 293.619 129.703 293.081 129.189 292.811C129.361 292.664 129.581 292.542 129.85 292.468C130.61 292.199 131.712 292.223 132.642 292.738C133.108 293.007 133.524 293.399 133.818 293.889C134.112 294.379 134.308 294.966 134.381 295.579C134.455 296.191 134.381 296.828 134.308 297.464C134.21 298.077 134.038 298.689 133.818 299.252C133.377 300.379 132.74 301.334 132.104 302.069C131.467 302.803 130.83 303.342 130.389 303.685C129.924 304.028 129.654 304.199 129.654 304.199C129.581 304.224 129.581 304.322 129.605 304.371C129.63 304.444 129.728 304.469 129.777 304.42C129.777 304.42 130.071 304.248 130.561 303.93C131.05 303.587 131.687 303.073 132.397 302.338C133.083 301.603 133.818 300.648 134.332 299.473C134.602 298.885 134.798 298.248 134.944 297.587C135.091 296.926 135.14 296.24 135.14 295.53C135.116 294.819 134.944 294.109 134.626 293.448C134.283 292.787 133.793 292.248 133.206 291.856Z" fill="white" style="fill:white;fill-opacity:1;"/>
<path d="M405.079 421.045C404.736 420.261 404.123 419.6 403.364 419.257C402.629 418.914 401.797 418.89 401.087 419.086C400.67 419.184 400.327 419.38 400.009 419.575C399.984 419.38 399.935 419.208 399.911 419.012C399.862 418.645 399.789 418.302 399.74 417.935C400.082 417.616 400.401 417.273 400.67 416.906C401.356 416.049 401.87 414.996 401.993 413.869C402.336 410.514 401.258 408.897 400.401 408.995C398.49 409.289 398.76 412.522 399.127 415.902C398.882 416.22 398.613 416.539 398.319 416.808L397.78 417.322C397.609 417.494 397.413 417.69 397.241 417.91C396.507 418.718 395.894 419.673 395.552 420.751C395.184 421.829 395.209 423.078 395.748 424.106C396.286 425.11 397.192 425.796 398.123 426.188C399.054 426.531 400.009 426.678 400.915 426.604C401.013 427.094 401.086 427.559 401.16 428C401.454 429.176 401.038 430.204 400.303 430.572C399.764 430.817 399.25 430.694 398.907 430.474C398.956 430.474 398.98 430.474 399.029 430.474C399.568 430.474 400.033 430.057 400.033 429.519C400.033 428.98 399.617 428.515 399.078 428.515C398.539 428.515 398.074 428.931 398.074 429.47C398.074 429.519 398.074 429.543 398.074 429.592C398.099 429.813 398.197 430.008 398.344 430.155C398.368 430.204 398.393 430.229 398.417 430.278C398.588 430.474 398.833 430.67 399.152 430.817C399.495 430.939 399.935 430.988 400.401 430.841C400.866 430.694 401.307 430.278 401.503 429.739C401.601 429.47 401.674 429.176 401.674 428.857C401.674 428.515 401.625 428.245 401.576 427.927C401.503 427.486 401.429 427.021 401.331 426.555C402.14 426.433 402.923 426.163 403.634 425.772C404.417 425.282 405.005 424.523 405.225 423.641C405.47 422.784 405.372 421.853 405.029 421.069L405.079 421.045ZM400.842 410.22C401.233 410.342 401.282 410.857 401.258 411.2C401.258 411.983 401.062 412.791 400.67 413.477C400.303 414.138 399.911 414.775 399.495 415.387C399.274 412.032 400.058 409.975 400.817 410.22H400.842ZM398.442 425.404C397.682 424.988 396.997 424.376 396.703 423.616C396.384 422.857 396.458 422 396.801 421.216C397.168 420.433 397.78 419.722 398.442 419.086C398.588 418.939 398.76 418.792 398.98 418.62L399.25 418.4C399.25 418.4 399.372 418.302 399.446 418.228C399.495 418.522 399.519 418.792 399.568 419.086C399.617 419.331 399.642 419.575 399.691 419.82C399.103 420.335 398.76 420.971 398.613 421.535C398.368 422.514 398.613 423.249 398.76 423.714C398.858 423.935 398.931 424.106 399.005 424.204C399.078 424.302 399.103 424.376 399.103 424.376C399.103 424.376 399.029 424.131 398.98 423.665C398.931 423.2 398.931 422.514 399.274 421.78C399.397 421.486 399.617 421.192 399.862 420.922C400.033 421.951 400.229 422.955 400.401 423.886C400.523 424.621 400.67 425.306 400.793 425.992C399.984 425.992 399.152 425.796 398.442 425.404ZM404.711 423.494C404.613 424.229 404.123 424.939 403.413 425.355C402.776 425.723 402.042 425.943 401.258 425.992C401.136 425.306 400.964 424.572 400.817 423.837C400.597 422.833 400.401 421.78 400.205 420.678C400.523 420.433 400.915 420.237 401.331 420.163C402.336 419.967 403.536 420.359 404.246 421.51C404.613 422.073 404.809 422.784 404.711 423.543V423.494Z" fill="white" style="fill:white;fill-opacity:1;"/>
<path d="M446.413 382.741C445.678 381.027 444.331 379.582 442.666 378.823C441.049 378.063 439.213 378.015 437.694 378.431C436.788 378.676 436.029 379.068 435.343 379.508C435.27 379.092 435.196 378.7 435.147 378.284C435.025 377.5 434.902 376.717 434.804 375.908C435.539 375.223 436.225 374.463 436.837 373.655C438.355 371.769 439.482 369.443 439.751 366.994C440.486 359.646 438.135 356.12 436.249 356.291C432.086 356.928 432.625 364.055 433.457 371.426C432.894 372.112 432.306 372.798 431.669 373.435L430.494 374.586C430.102 374.953 429.71 375.394 429.294 375.859C427.677 377.647 426.355 379.704 425.571 382.055C424.763 384.382 424.812 387.174 426.012 389.378C427.163 391.607 429.171 393.101 431.229 393.933C433.261 394.717 435.368 394.987 437.376 394.864C437.572 395.917 437.768 396.946 437.915 397.901C438.551 400.448 437.645 402.75 436.053 403.558C434.853 404.097 433.751 403.803 432.992 403.313C433.065 403.313 433.163 403.338 433.237 403.338C434.437 403.362 435.417 402.432 435.466 401.256C435.49 400.056 434.559 399.077 433.359 399.052C432.184 399.028 431.18 399.958 431.155 401.134C431.155 401.232 431.155 401.33 431.155 401.403C431.155 401.403 431.155 401.403 431.155 401.428C431.204 401.893 431.4 402.334 431.718 402.652C431.767 402.726 431.841 402.824 431.914 402.897C432.257 403.313 432.796 403.754 433.555 404.048C434.315 404.318 435.27 404.44 436.274 404.097C437.302 403.779 438.257 402.873 438.723 401.673C438.968 401.085 439.115 400.424 439.09 399.738C439.09 399.003 438.968 398.391 438.87 397.705C438.723 396.75 438.551 395.746 438.355 394.717C440.143 394.472 441.858 393.884 443.376 393.003C445.066 391.925 446.388 390.26 446.878 388.35C447.417 386.464 447.197 384.456 446.462 382.717L446.413 382.741ZM437.131 359.01C437.964 359.279 438.086 360.43 438.062 361.14C438.037 362.879 437.596 364.618 436.764 366.136C435.955 367.606 435.123 368.977 434.192 370.324C433.727 362.953 435.417 358.471 437.106 359.01H437.131ZM431.914 392.293C430.225 391.411 428.755 390.039 428.094 388.374C427.408 386.709 427.555 384.823 428.339 383.109C429.122 381.394 430.469 379.827 431.914 378.455C432.257 378.137 432.625 377.794 433.09 377.427L433.702 376.912C433.849 376.79 433.996 376.668 434.143 376.545C434.241 377.182 434.339 377.794 434.412 378.406C434.486 378.97 434.584 379.484 434.682 380.047C433.408 381.149 432.625 382.57 432.306 383.819C431.792 385.949 432.257 387.59 432.649 388.57C432.845 389.06 433.041 389.427 433.188 389.648C433.335 389.893 433.408 389.99 433.408 389.99C433.408 389.99 433.261 389.452 433.163 388.423C433.09 387.419 433.065 385.901 433.8 384.309C434.094 383.672 434.535 383.011 435.098 382.447C435.49 384.725 435.882 386.905 436.274 388.962C436.568 390.554 436.862 392.097 437.131 393.542C435.343 393.517 433.531 393.101 431.963 392.244L431.914 392.293ZM445.654 388.105C445.433 389.721 444.356 391.264 442.813 392.17C441.441 392.978 439.8 393.444 438.086 393.566C437.792 392.048 437.474 390.48 437.131 388.815C436.666 386.635 436.2 384.309 435.759 381.86C436.47 381.321 437.302 380.929 438.257 380.733C440.437 380.292 443.058 381.174 444.65 383.672C445.433 384.896 445.899 386.464 445.678 388.105H445.654Z" fill="white" style="fill:white;fill-opacity:1;"/>
<path d="M300.08 127.988C299.762 127.229 299.174 126.593 298.439 126.274C297.729 125.956 296.921 125.907 296.259 126.103C295.867 126.201 295.525 126.372 295.231 126.593C295.206 126.421 295.157 126.25 295.133 126.054C295.084 125.711 295.035 125.368 294.986 125.001C295.304 124.707 295.623 124.364 295.892 124.021C296.553 123.188 297.043 122.184 297.165 121.082C297.484 117.849 296.455 116.306 295.623 116.38C293.786 116.649 294.031 119.784 294.398 123.017C294.153 123.311 293.884 123.629 293.614 123.899L293.1 124.413C292.929 124.584 292.757 124.756 292.561 124.976C291.851 125.76 291.263 126.666 290.92 127.695C290.577 128.723 290.578 129.948 291.116 130.903C291.631 131.883 292.488 132.544 293.418 132.911C294.3 133.254 295.231 133.376 296.112 133.327C296.21 133.793 296.284 134.234 296.333 134.674C296.602 135.801 296.21 136.805 295.525 137.148C295.01 137.393 294.496 137.27 294.178 137.05C294.202 137.05 294.251 137.05 294.276 137.05C294.79 137.05 295.231 136.658 295.255 136.144C295.255 135.63 294.863 135.189 294.325 135.164C293.81 135.164 293.369 135.556 293.345 136.095C293.345 136.144 293.345 136.168 293.345 136.217C293.345 136.413 293.467 136.609 293.59 136.756C293.614 136.781 293.639 136.83 293.663 136.854C293.81 137.05 294.055 137.246 294.374 137.368C294.716 137.491 295.133 137.54 295.574 137.393C296.014 137.246 296.455 136.854 296.651 136.34C296.749 136.07 296.823 135.777 296.823 135.483C296.823 135.164 296.774 134.895 296.725 134.577C296.651 134.16 296.578 133.719 296.504 133.254C297.288 133.156 298.047 132.887 298.708 132.495C299.443 132.029 300.031 131.295 300.251 130.438C300.496 129.605 300.398 128.723 300.055 127.964L300.08 127.988ZM296.014 117.555C296.382 117.678 296.431 118.168 296.431 118.486C296.431 119.245 296.235 120.005 295.867 120.69C295.525 121.327 295.157 121.939 294.741 122.527C294.545 119.294 295.28 117.311 296.014 117.555ZM293.712 132.176C292.978 131.785 292.316 131.197 292.022 130.462C291.729 129.727 291.778 128.895 292.12 128.135C292.463 127.376 293.051 126.69 293.688 126.103C293.835 125.956 294.006 125.809 294.202 125.662L294.472 125.441C294.472 125.441 294.594 125.343 294.667 125.27C294.716 125.539 294.741 125.833 294.79 126.103C294.839 126.348 294.863 126.593 294.912 126.813C294.349 127.303 294.006 127.915 293.859 128.478C293.639 129.409 293.859 130.144 294.006 130.56C294.104 130.78 294.178 130.927 294.251 131.05C294.325 131.148 294.349 131.197 294.349 131.197C294.349 131.197 294.276 130.952 294.227 130.511C294.178 130.07 294.178 129.409 294.496 128.699C294.618 128.405 294.814 128.135 295.059 127.891C295.231 128.895 295.402 129.85 295.574 130.756C295.696 131.466 295.818 132.127 295.941 132.764C295.157 132.764 294.374 132.568 293.663 132.201L293.712 132.176ZM299.762 130.34C299.664 131.05 299.198 131.736 298.512 132.127C297.9 132.495 297.19 132.691 296.431 132.74C296.308 132.078 296.161 131.368 296.014 130.658C295.819 129.703 295.598 128.674 295.402 127.597C295.721 127.376 296.088 127.18 296.504 127.107C297.459 126.911 298.61 127.303 299.321 128.405C299.664 128.944 299.859 129.629 299.762 130.364V130.34Z" fill="white" style="fill:white;fill-opacity:1;"/>
</g>
<path d="M283.095 441.191C361.572 441.191 425.191 377.572 425.191 299.095C425.191 220.618 361.572 157 283.095 157C204.618 157 141 220.618 141 299.095C141 377.572 204.618 441.191 283.095 441.191Z" fill="white" style="fill:white;fill-opacity:1;"/>
</svg>
