<svg xmlns="http://www.w3.org/2000/svg" width="101" height="101" viewBox="0 0 101 101" fill="none">
  <circle cx="50.5" cy="50.5" r="50" stroke="white" style="stroke:white;stroke-opacity:1;"/>
  <path d="M33.4142 30.5858C32.6332 29.8047 31.3668 29.8047 30.5858 30.5858C29.8047 31.3668 29.8047 32.6332 30.5858 33.4142L32 32L33.4142 30.5858ZM70 72C71.1046 72 72 71.1046 72 70L72 52C72 50.8954 71.1046 50 70 50C68.8954 50 68 50.8954 68 52L68 68L52 68C50.8954 68 50 68.8954 50 70C50 71.1046 50.8954 72 52 72L70 72ZM32 32L30.5858 33.4142L68.5858 71.4142L70 70L71.4142 68.5858L33.4142 30.5858L32 32Z" fill="white" style="fill:white;fill-opacity:1;"/>
</svg>