<svg width="42" height="49" viewBox="0 0 42 49" fill="none" xmlns="http://www.w3.org/2000/svg">
<path d="M41.25 6.875V41.875C41.25 45.6675 38.1675 48.75 34.375 48.75H9.375C5.5825 48.75 2.5 45.6675 2.5 41.875V38.75H1.875C0.84 38.75 0 37.91 0 36.875C0 35.84 0.84 35 1.875 35H2.5V26.25H1.875C0.84 26.25 0 25.41 0 24.375C0 23.34 0.84 22.5 1.875 22.5H2.5V13.75H1.875C0.84 13.75 0 12.91 0 11.875C0 10.84 0.84 10 1.875 10H2.5V6.875C2.5 3.0825 5.5825 0 9.375 0H34.375C38.1675 0 41.25 3.0825 41.25 6.875ZM37.5 6.875C37.5 5.1525 36.0975 3.75 34.375 3.75H9.375C7.6525 3.75 6.25 5.1525 6.25 6.875V10H6.875C7.91 10 8.75 10.84 8.75 11.875C8.75 12.91 7.91 13.75 6.875 13.75H6.25V22.5H6.875C7.91 22.5 8.75 23.34 8.75 24.375C8.75 25.41 7.91 26.25 6.875 26.25H6.25V35H6.875C7.91 35 8.75 35.84 8.75 36.875C8.75 37.91 7.91 38.75 6.875 38.75H6.25V41.875C6.25 43.5975 7.6525 45 9.375 45H34.375C36.0975 45 37.5 43.5975 37.5 41.875V6.875ZM32.6125 29.42C31.96 30.85 30.4475 31.8 28.7725 31.8C27.23 31.8 25.885 30.985 25.12 29.7675C24.1675 30.3425 23.065 30.6925 21.8725 30.6925C18.3875 30.6925 15.5525 27.8575 15.5525 24.375C15.5525 20.8925 18.3875 18.0575 21.8725 18.0575C25.3575 18.0575 28.16 20.8675 28.1875 24.3275C28.1875 24.345 28.1975 24.3575 28.1975 24.375V27.475C28.1975 27.9975 29.095 28.09 29.2175 27.825C29.875 26.4675 30.115 24.9575 29.9375 23.4175C29.515 19.6975 26.3825 16.635 22.6525 16.29C20.1025 16.06 17.6675 16.9775 15.94 18.8175C14.2175 20.6525 13.455 23.155 13.8525 25.6825C14.355 28.99 17.0175 31.7325 20.3225 32.355C21.545 32.58 22.7825 32.535 23.8825 32.24C24.89 31.9775 25.9125 32.56 26.1825 33.5575C26.455 34.555 25.865 35.5875 24.865 35.8575C23.905 36.1175 22.9125 36.2475 21.895 36.2475C21.155 36.2475 20.4025 36.18 19.6425 36.0425C14.7075 35.11 10.895 31.18 10.1475 26.255C9.5725 22.5825 10.6875 18.935 13.2075 16.25C15.7325 13.5625 19.295 12.2125 22.9975 12.5525C28.55 13.065 33.035 17.4525 33.665 22.985C33.9275 25.2275 33.5625 27.4525 32.615 29.415L32.6125 29.42ZM24.4425 24.375C24.4425 22.96 23.29 21.8075 21.8725 21.8075C20.455 21.8075 19.3025 22.96 19.3025 24.375C19.3025 25.79 20.455 26.9425 21.8725 26.9425C23.29 26.9425 24.4425 25.79 24.4425 24.375Z" fill="#6739B7" style="fill:#6739B7;fill:color(display-p3 0.4039 0.2235 0.7176);fill-opacity:1;"/>
</svg>
