<svg xmlns="http://www.w3.org/2000/svg" width="24" height="24" viewBox="0 0 24 24" fill="none">
  <path fill-rule="evenodd" clip-rule="evenodd" d="M3.59961 6C3.59961 5.68174 3.72604 5.37652 3.95108 5.15148C4.17612 4.92643 4.48135 4.8 4.79961 4.8H19.1996C19.5179 4.8 19.8231 4.92643 20.0481 5.15148C20.2732 5.37652 20.3996 5.68174 20.3996 6C20.3996 6.31826 20.2732 6.62349 20.0481 6.84853C19.8231 7.07357 19.5179 7.2 19.1996 7.2H4.79961C4.48135 7.2 4.17612 7.07357 3.95108 6.84853C3.72604 6.62349 3.59961 6.31826 3.59961 6ZM3.59961 12C3.59961 11.6817 3.72604 11.3765 3.95108 11.1515C4.17612 10.9264 4.48135 10.8 4.79961 10.8H19.1996C19.5179 10.8 19.8231 10.9264 20.0481 11.1515C20.2732 11.3765 20.3996 11.6817 20.3996 12C20.3996 12.3183 20.2732 12.6235 20.0481 12.8485C19.8231 13.0736 19.5179 13.2 19.1996 13.2H4.79961C4.48135 13.2 4.17612 13.0736 3.95108 12.8485C3.72604 12.6235 3.59961 12.3183 3.59961 12ZM10.7996 18C10.7996 17.6817 10.926 17.3765 11.1511 17.1515C11.3761 16.9264 11.6813 16.8 11.9996 16.8H19.1996C19.5179 16.8 19.8231 16.9264 20.0481 17.1515C20.2732 17.3765 20.3996 17.6817 20.3996 18C20.3996 18.3183 20.2732 18.6235 20.0481 18.8485C19.8231 19.0736 19.5179 19.2 19.1996 19.2H11.9996C11.6813 19.2 11.3761 19.0736 11.1511 18.8485C10.926 18.6235 10.7996 18.3183 10.7996 18Z" fill="#6739B7" style="fill:#6739B7;fill:color(display-p3 0.4039 0.2235 0.7176);fill-opacity:1;"/>
</svg>