<svg width="72" height="32" viewBox="0 0 72 32" fill="none" xmlns="http://www.w3.org/2000/svg">
<path d="M71.6383 8.24941C71.7563 11.3494 69.5825 14.4311 66.5875 15.2921C64.1958 15.9795 61.495 15.189 59.7164 13.473C58.905 12.6904 57.5784 12.8606 56.9908 13.8226L46.8559 30.4157C46.554 30.9101 46.2311 31.4253 45.727 31.7104C45.4472 31.8682 45.1041 31.9256 44.7891 31.8617C44.6508 31.8336 44.5171 31.7788 44.3866 31.7254C44.2979 31.6888 44.2092 31.6491 44.1303 31.593C43.9653 31.4762 43.8681 31.2916 43.7755 31.1168C43.5935 30.7725 43.4161 30.4261 43.2368 30.0805C43.0529 29.727 42.8689 29.3728 42.685 29.0193C42.5011 28.6658 42.3171 28.3116 42.1332 27.9581C41.9493 27.6046 41.7654 27.2505 41.5814 26.897C41.3975 26.5435 41.2136 26.1893 41.0303 25.8358C40.8464 25.4823 40.6625 25.1282 40.4792 24.7747C40.2953 24.4212 40.1113 24.067 39.9281 23.7135C39.7442 23.36 39.5602 23.0058 39.377 22.6523C39.193 22.2988 39.0098 21.9447 38.8258 21.5912C38.6419 21.2377 38.4586 20.8835 38.2747 20.53C38.0908 20.1765 37.9075 19.8224 37.7236 19.4689C37.5396 19.1154 37.3564 18.7612 37.1725 18.4077C36.9885 18.0536 36.8053 17.7001 36.6213 17.3459C36.4374 16.9917 36.2541 16.6382 36.0702 16.2841C35.8863 15.9299 35.703 15.5764 35.5191 15.2223C35.3352 14.8681 35.1519 14.5146 34.968 14.1605C34.784 13.8063 34.6008 13.4528 34.4168 13.0986C34.2499 12.7765 34.0829 12.4549 33.9159 12.1327C33.6955 11.7081 33.4698 11.264 33.4594 10.7852C33.4463 10.1885 33.7666 9.6419 34.0764 9.13187L38.7971 1.36525C38.9765 1.06979 39.2322 0.820643 39.5485 0.680416C40.6325 0.197775 41.5332 1.36199 42.0471 2.34814C44.3906 6.84389 46.734 11.3396 49.0774 15.8354C49.2698 16.2052 49.5679 16.5169 49.9448 16.6943C51.1371 17.2565 52.0091 16.1471 52.5837 15.1916C54.3154 12.3134 56.0477 9.43513 57.7793 6.55624C58.5704 5.24137 59.389 3.89521 60.5988 2.95145C61.8452 1.97899 63.4582 1.50482 65.0372 1.59091C68.3035 1.76897 71.2359 4.53568 71.6044 7.78633C71.622 7.94091 71.6337 8.09549 71.6396 8.25007L71.6383 8.24941Z" fill="white" style="fill:white;fill-opacity:1;"/>
<path d="M37.6609 21.8894L32.5188 30.3513C32.4314 30.4935 32.327 30.6259 32.1986 30.7348C31.7877 31.0805 31.305 31.192 30.8361 31.0713C30.4063 30.9611 30.056 30.6461 29.8493 30.2535L22.2868 15.8675C21.6848 14.7222 20.0621 14.6694 19.3864 15.7768L13.2334 25.8693L13.2255 25.8829L12.5948 26.918C11.2813 28.6979 9.14134 29.8315 6.74183 29.7526C3.07636 29.6319 0.0983269 26.6323 0.00245075 22.9662C-0.0979909 19.1279 2.90156 15.9673 6.67791 15.8081C6.77769 15.8036 6.87749 15.801 6.97793 15.801C8.83936 15.801 10.5306 16.5295 11.7809 17.7178C12.7161 18.6061 14.2358 18.3922 14.9076 17.2906L24.9681 0.788205C25.122 0.536449 25.3392 0.329685 25.5955 0.190763C25.724 0.121628 25.8401 0.0622821 25.876 0.0505422C26.5223 -0.148384 27.3245 0.266424 27.6585 0.830593L37.6648 20.1441C37.7359 20.2856 37.7972 20.4304 37.8429 20.5759C37.9798 21.0154 37.8996 21.4955 37.6609 21.8894Z" fill="white" style="fill:white;fill-opacity:1;"/>
</svg>
