<svg xmlns="http://www.w3.org/2000/svg" width="211" height="18" viewBox="0 0 211 18" fill="none">
  <path d="M1.1582 7.37411C0.518254 7.37411 -0.00052708 7.89289 -0.000527024 8.53284C-0.000526968 9.17279 0.518254 9.69157 1.1582 9.69157L1.1582 8.53284L1.1582 7.37411ZM210.549 9.35216C211.002 8.89965 211.002 8.16598 210.549 7.71347L203.175 0.33936C202.722 -0.113152 201.989 -0.113152 201.536 0.33936C201.084 0.791872 201.084 1.52554 201.536 1.97805L208.091 8.53282L201.536 15.0876C201.084 15.5401 201.084 16.2738 201.536 16.7263C201.989 17.1788 202.722 17.1788 203.175 16.7263L210.549 9.35216ZM1.1582 8.53284L1.1582 9.69157L209.73 9.69155L209.73 8.53282L209.73 7.37409L1.1582 7.37411L1.1582 8.53284Z" fill="url(#paint0_linear_807_6265)"/>
  <defs>
    <linearGradient id="paint0_linear_807_6265" x1="1.1582" y1="9.03284" x2="209.73" y2="9.03282" gradientUnits="userSpaceOnUse">
      <stop stop-color="white" style="stop-color:white;stop-opacity:1;"/>
      <stop offset="1" stop-color="#6739B7" style="stop-color:#6739B7;stop-color:color(display-p3 0.4039 0.2235 0.7176);stop-opacity:1;"/>
    </linearGradient>
  </defs>
</svg>