<svg width="179" height="53" viewBox="0 0 179 53" fill="none" xmlns="http://www.w3.org/2000/svg">
<g clip-path="url(#clip0_2632_3706)">
<path d="M34.2062 18.8281C37.6915 21.3212 41.8709 22.6587 46.1561 22.6522V14.083C45.3128 14.0831 44.4718 13.995 43.6468 13.8202V20.5661C39.3617 20.5723 35.1824 19.2349 31.697 16.742V34.2352C31.6943 37.106 30.9121 39.9223 29.4338 42.3834C27.9556 44.8444 25.8368 46.8579 23.3037 48.2089C20.7706 49.5598 17.9181 50.1976 15.0508 50.0541C12.1836 49.9106 9.40903 48.9912 7.02344 47.3941C9.22577 49.645 12.0486 51.189 15.132 51.8291C18.2154 52.4692 21.4195 52.1764 24.3358 50.9881C27.2521 49.7998 29.7484 47.7698 31.5063 45.1571C33.2643 42.5443 34.2042 39.4672 34.2062 36.3181V18.8249V18.8281ZM37.298 10.1816C35.5281 8.2513 34.4417 5.79269 34.2062 3.18435V2.08594H31.828C32.1213 3.7439 32.7603 5.32157 33.7035 6.71635C34.6466 8.11114 35.8727 9.29181 37.3021 10.1816H37.298ZM12.5602 40.68C11.6289 39.453 11.1125 37.9613 11.0859 36.4211C11.0593 34.8809 11.5239 33.3722 12.4123 32.1138C13.3007 30.8554 14.5669 29.9126 16.0271 29.4221C17.4874 28.9316 19.0659 28.9189 20.5339 29.3859V20.6246C19.7028 20.5107 18.8641 20.4622 18.0254 20.4798V27.2997C16.2881 26.746 14.406 26.8674 12.7542 27.6397C11.1024 28.412 9.80233 29.7784 9.1132 31.4666C8.42408 33.1548 8.3965 35.0406 9.03598 36.7482C9.67545 38.4558 10.935 39.8597 12.5635 40.68H12.5602Z" fill="#414141" style="fill:#414141;fill:color(display-p3 0.2549 0.2549 0.2549);fill-opacity:1;"/>
<path opacity="0.5" d="M31.6992 16.742C35.1846 19.2348 39.3639 20.5723 43.6491 20.5661V13.8169C41.2068 13.2953 38.9882 12.0244 37.3027 10.1816C35.8733 9.29181 34.6472 8.11114 33.7041 6.71635C32.761 5.32157 32.1219 3.7439 31.8286 2.08594H25.5839V36.3181C25.5766 37.8321 25.0956 39.3059 24.2083 40.5328C23.321 41.7596 22.072 42.678 20.6364 43.1591C19.2008 43.6402 17.6506 43.6599 16.2032 43.2155C14.7559 42.771 13.4839 41.8847 12.5657 40.6808C10.9393 39.8591 9.68194 38.4551 9.04396 36.7483C8.40598 35.0414 8.43417 33.1569 9.12292 31.4699C9.81168 29.7829 11.1105 28.4172 12.7608 27.6445C14.411 26.8719 16.2917 26.7491 18.0285 27.3005V20.4798C14.9382 20.5421 11.9336 21.5072 9.38506 23.2561C6.83651 25.0051 4.85534 27.4614 3.6857 30.3225C2.51606 33.1836 2.20906 36.3244 2.80254 39.3578C3.39602 42.3912 4.86403 45.1848 7.02568 47.3941C9.41151 48.9914 12.1863 49.9108 15.0539 50.0542C17.9215 50.1975 20.7741 49.5595 23.3074 48.2081C25.8406 46.8567 27.9593 44.8428 29.4373 42.3813C30.9153 39.9197 31.6971 37.1031 31.6992 34.2319V16.7387V16.742Z" fill="#414141" style="fill:#414141;fill:color(display-p3 0.2549 0.2549 0.2549);fill-opacity:1;"/>
<path d="M43.6494 13.818V11.9938C41.4058 11.9974 39.2065 11.3695 37.3031 10.1818C38.988 12.0255 41.2068 13.2968 43.6494 13.818ZM31.8305 2.08616C31.7736 1.76071 31.7299 1.43281 31.6995 1.10248V0H23.0742V34.2321C23.069 35.4673 22.7484 36.6807 22.1428 37.7574C21.5373 38.834 20.6669 39.7381 19.614 40.3841C18.5612 41.03 17.3608 41.3964 16.1267 41.4486C14.8925 41.5007 13.6656 41.2367 12.562 40.6818C13.4802 41.8857 14.7521 42.7721 16.1995 43.2165C17.6469 43.661 19.1971 43.6413 20.6327 43.1602C22.0683 42.6791 23.3173 41.7607 24.2046 40.5338C25.0919 39.307 25.5729 37.8332 25.5802 36.3191V2.08616H31.8305ZM18.0248 20.48V18.5387C17.304 18.4403 16.5774 18.3911 15.8499 18.3914C12.4521 18.3895 9.1437 19.4801 6.41316 21.5023C3.68262 23.5245 1.67466 26.3711 0.68575 29.6218C-0.303163 32.8725 -0.220621 36.3551 0.921189 39.5553C2.063 42.7555 4.20356 45.5038 7.02684 47.3943C4.86545 45.1853 3.3975 42.3922 2.80385 39.3592C2.2102 36.3262 2.51678 33.1858 3.68583 30.3249C4.85488 27.464 6.83531 25.0076 9.38314 23.2583C11.931 21.509 14.9349 20.5433 18.0248 20.48Z" fill="#414141" style="fill:#414141;fill:color(display-p3 0.2549 0.2549 0.2549);fill-opacity:1;"/>
<g opacity="0.3">
<path d="M55.5078 15.3177V21.0197H62.1869V42.7438H68.8685V21.1734H74.3053L76.1693 15.3153H55.5078V15.3177ZM110.193 15.3177V21.0197H116.872V42.7438H123.554V21.1734H128.991L130.855 15.3153H110.193V15.3177ZM77.4141 18.5535C77.409 17.9072 77.596 17.2739 77.9513 16.734C78.3067 16.1942 78.8145 15.772 79.4102 15.5212C80.0059 15.2704 80.6627 15.2022 81.2972 15.3253C81.9317 15.4484 82.5153 15.7573 82.974 16.2126C83.4327 16.668 83.7458 17.2494 83.8735 17.883C84.0012 18.5166 83.9378 19.1739 83.6913 19.7714C83.4448 20.3689 83.0264 20.8797 82.4891 21.239C81.9518 21.5983 81.3199 21.7898 80.6736 21.7894C80.2471 21.791 79.8244 21.7085 79.4298 21.5468C79.0352 21.385 78.6763 21.1471 78.3736 20.8466C78.0709 20.5461 77.8304 20.189 77.6658 19.7955C77.5012 19.4021 77.4156 18.98 77.4141 18.5535ZM77.4141 24.1017H83.9346V42.747H77.4117L77.4141 24.1017ZM86.7335 15.3144V42.7438H93.2589V35.6562L95.2783 33.8051L101.647 42.8975H108.637L99.4751 29.6491L107.709 21.6348H99.7867L93.263 28.1064V15.3177L86.7335 15.3144ZM157.108 15.3144V42.7438H163.634V35.6562L165.653 33.8051L172.024 42.8975H179.015L169.849 29.645L178.083 21.6307H170.161L163.635 28.1024V15.3177L157.108 15.3144Z" fill="#414141" style="fill:#414141;fill:color(display-p3 0.2549 0.2549 0.2549);fill-opacity:1;"/>
<path d="M141.884 42.9009C143.372 42.9188 144.85 42.641 146.23 42.0837C147.611 41.5264 148.867 40.7006 149.926 39.6543C150.985 38.6079 151.826 37.3617 152.4 35.988C152.974 34.6143 153.269 33.1403 153.269 31.6515C153.269 30.1627 152.974 28.6888 152.4 27.315C151.826 25.9413 150.985 24.6951 149.926 23.6488C148.867 22.6024 147.611 21.7766 146.23 21.2193C144.85 20.662 143.372 20.3843 141.884 20.4022H141.729C140.241 20.3843 138.763 20.662 137.383 21.2193C136.002 21.7766 134.746 22.6024 133.687 23.6488C132.628 24.6951 131.787 25.9413 131.213 27.315C130.639 28.6888 130.344 30.1627 130.344 31.6515C130.344 33.1403 130.639 34.6143 131.213 35.988C131.787 37.3617 132.628 38.6079 133.687 39.6543C134.746 40.7006 136.002 41.5264 137.383 42.0837C138.763 42.641 140.241 42.9188 141.729 42.9009H141.884ZM136.292 31.6507C136.283 30.558 136.599 29.4873 137.199 28.5744C137.8 27.6615 138.658 26.9476 139.665 26.5232C140.672 26.0988 141.783 25.9832 142.855 26.1908C143.928 26.3985 144.915 26.9202 145.691 27.6897C146.467 28.4592 146.997 29.4418 147.213 30.5128C147.43 31.5839 147.323 32.6952 146.907 33.7057C146.491 34.7161 145.785 35.5803 144.877 36.1885C143.969 36.7966 142.901 37.1214 141.808 37.1216C141.087 37.1247 140.372 36.9856 139.704 36.7124C139.036 36.4391 138.429 36.0369 137.917 35.5289C137.404 35.0209 136.997 34.4169 136.718 33.7514C136.44 33.086 136.295 32.3722 136.292 31.6507Z" fill="#414141" style="fill:#414141;fill:color(display-p3 0.2549 0.2549 0.2549);fill-opacity:1;"/>
</g>
</g>
<defs>
<clipPath id="clip0_2632_3706">
<rect width="179.012" height="52.1606" fill="white" style="fill:white;fill-opacity:1;"/>
</clipPath>
</defs>
</svg>
